<?xml version="1.0" encoding="UTF-8"?>
<svg width="21px" height="14px" viewBox="0 0 21 14" version="1.1" xmlns="http://www.w3.org/2000/svg" xmlns:xlink="http://www.w3.org/1999/xlink">
    <!-- Generator: Sketch 51.3 (57544) - http://www.bohemiancoding.com/sketch -->
    <title>email-filled-closed-envelope</title>
    <desc>Created with Sketch.</desc>
    <defs></defs>
    <g id="Page-1" stroke="none" stroke-width="1" fill="none" fill-rule="evenodd">
        <g id="business-info---design-2" transform="translate(-874.000000, -302.000000)" fill="#FFFFFF" fill-rule="nonzero">
            <g id="Group-25" transform="translate(-5.000000, -1.000000)">
                <g id="email-filled-closed-envelope" transform="translate(879.879760, 303.653307)">
                    <path d="M9.64787872,7.72408897 L9.65199869,7.72408897 C9.79714081,7.72408897 9.94058464,7.68201425 10.0566354,7.60540621 L10.088117,7.58520154 C10.0949731,7.58073955 10.1021437,7.57668605 10.1093458,7.57187841 L10.4759908,7.26880845 L19.2272592,0.0534496625 C19.2091439,0.0284687797 19.1782914,0.0113749429 19.1454261,0.0113749429 L0.101678115,0.0113749429 C0.0780591033,0.0113749429 0.0561383962,0.0199218613 0.0386836007,0.0342819411 L9.19458869,7.57423509 C9.30997905,7.66969663 9.47462022,7.72408897 9.64787872,7.72408897 Z M0,1.03376863 L0,11.729043 L6.55891458,6.43526395 L0,1.03376863 Z M12.6953917,6.47117986 L19.2474501,11.7317767 L19.2474501,1.0693389 L12.6953917,6.47117986 Z M10.6122326,8.18823063 C10.3510397,8.4023435 10.0093974,8.52036639 9.65061488,8.52036639 C9.29047999,8.52036639 8.94915226,8.4030348 8.68865123,8.18992744 L7.18643806,6.95206971 L0,12.7514366 L0,12.7698816 C0,12.8249653 0.047238023,12.8718162 0.103030468,12.8718162 L19.145772,12.8718162 C19.2005266,12.8718162 19.2474187,12.8249653 19.2474187,12.769536 L12.0671763,6.98836269 L10.6122326,8.18823063 Z" id="Shape"></path>
                </g>
            </g>
        </g>
    </g>
</svg>