<?xml version="1.0" encoding="UTF-8"?>
<svg width="21px" height="20px" viewBox="0 0 21 20" version="1.1" xmlns="http://www.w3.org/2000/svg" xmlns:xlink="http://www.w3.org/1999/xlink">
    <!-- Generator: Sketch 51.3 (57544) - http://www.bohemiancoding.com/sketch -->
    <title>global</title>
    <desc>Created with Sketch.</desc>
    <defs></defs>
    <g id="Page-1" stroke="none" stroke-width="1" fill="none" fill-rule="evenodd">
        <g id="business-info---design-2" transform="translate(-874.000000, -349.000000)" fill="#FFFFFF" fill-rule="nonzero">
            <g id="Group-25" transform="translate(-5.000000, -1.000000)">
                <g id="global" transform="translate(879.879760, 350.276553)">
                    <path d="M9.86148768,0 C4.40842783,0 0,4.31456707 0,9.65152469 C0,14.9884823 4.40842783,19.3030494 9.86148768,19.3030494 C15.3145475,19.3030494 19.7229754,14.9884823 19.7229754,9.65152469 C19.7229754,4.31456707 15.3145475,0 9.86148768,0 Z M6.8848914,1.31450214 C6.36459205,2.02899128 5.92092594,2.78295497 5.54985973,3.57244574 L3.31136253,3.57244574 C4.28742798,2.56189756 5.50952645,1.78030169 6.8848914,1.31450214 Z M2.60553008,4.39351615 L5.19492684,4.39351615 C4.58589427,5.9290757 4.25112802,7.56726905 4.20272808,9.24098949 L0.85103227,9.24098949 C0.935732164,7.42910816 1.57299804,5.75933518 2.60553008,4.39351615 Z M2.60553008,14.9095332 C1.57299804,13.5437142 0.935732164,11.8739412 0.85103227,10.0620599 L4.20272808,10.0620599 C4.25112802,11.7357803 4.59799426,13.3739737 5.21106016,14.9095332 L2.60553008,14.9095332 Z M3.31136253,15.7306036 L5.57002638,15.7306036 C5.94512591,16.5200944 6.38879202,17.281953 6.90102471,17.9964421 C5.52162644,17.5306426 4.29146131,16.7450993 3.31136253,15.7306036 Z M9.44202154,18.4740841 C9.0225554,18.4543468 8.60712258,18.4069773 8.20378975,18.3359232 C7.53425726,17.5266951 6.96152464,16.6543078 6.49769188,15.7345511 L9.44202154,15.7345511 L9.44202154,18.4740841 Z M9.44202154,14.9095332 L6.1145257,14.9095332 C5.46515984,13.3779211 5.09409364,11.7397278 5.04166037,10.0620599 L9.44202154,10.0620599 L9.44202154,14.9095332 Z M9.44202154,9.24098949 L5.04166037,9.24098949 C5.09409364,7.56726905 5.46112651,5.92512824 6.10645904,4.39351615 L9.44202154,4.39351615 L9.44202154,9.24098949 Z M9.44605487,3.57244574 L9.44202154,3.57244574 L6.48962523,3.57244574 C6.95749131,2.64479409 7.53022393,1.77240678 8.20378975,0.97107365 C8.60712258,0.896072026 9.0225554,0.852650034 9.44605487,0.832912764 L9.44605487,3.57244574 Z M17.1174453,4.39351615 C18.1499773,5.75933518 18.7912765,7.42516071 18.8719431,9.24098949 L15.5202473,9.24098949 C15.4718473,7.56726905 15.1249811,5.9290757 14.5119152,4.39351615 L17.1174453,4.39351615 Z M16.4116128,3.57244574 L14.152949,3.57244574 C13.7778495,2.78295497 13.3341833,2.02109638 12.8179173,1.30660723 C14.2013489,1.77240678 15.4315141,2.5579501 16.4116128,3.57244574 Z M10.2809538,0.832912764 C10.70042,0.852650034 11.1158528,0.90001948 11.5191856,0.97107365 C12.1887181,1.78030169 12.7614507,2.65268899 13.2252835,3.57244574 L10.2809538,3.57244574 L10.2809538,0.832912764 Z M10.2809538,4.39351615 L13.6084497,4.39351615 C14.2578155,5.92118079 14.6288817,7.5633216 14.681315,9.24098949 L10.2809538,9.24098949 L10.2809538,4.39351615 Z M10.2809538,10.0620599 L14.681315,10.0620599 C14.6288817,11.7357803 14.2618489,13.3779211 13.6165163,14.9095332 L10.2809538,14.9095332 L10.2809538,10.0620599 Z M10.2769205,18.4701366 L10.2769205,15.7306036 L10.2809538,15.7306036 L13.2333501,15.7306036 C12.7654841,16.6582553 12.1927514,17.5306426 11.5191856,18.3319757 C11.1158528,18.4069773 10.70042,18.4503993 10.2769205,18.4701366 Z M12.8179173,17.9964421 C13.33015,17.281953 13.7738161,16.5200944 14.1448823,15.7306036 L16.4156462,15.7306036 C15.4315141,16.7450993 14.2013489,17.5306426 12.8179173,17.9964421 Z M14.4998152,14.9095332 C15.1048145,13.3739737 15.4476474,11.7357803 15.516214,10.0620599 L18.8759764,10.0620599 C18.7912765,11.8739412 18.1540107,13.5437142 17.1214786,14.9095332 L14.4998152,14.9095332 Z" id="Shape"></path>
                </g>
            </g>
        </g>
    </g>
</svg>