<?xml version="1.0" encoding="UTF-8"?>
<svg width="21px" height="21px" viewBox="0 0 21 21" version="1.1" xmlns="http://www.w3.org/2000/svg" xmlns:xlink="http://www.w3.org/1999/xlink">
    <!-- Generator: Sketch 51.3 (57544) - http://www.bohemiancoding.com/sketch -->
    <title>instagram-logo</title>
    <desc>Created with Sketch.</desc>
    <defs></defs>
    <g id="Page-1" stroke="none" stroke-width="1" fill="none" fill-rule="evenodd">
        <g id="business-info---design-2" transform="translate(-874.000000, -398.000000)" fill="#FFFFFF" fill-rule="nonzero">
            <g id="Group-25" transform="translate(-5.000000, -1.000000)">
                <g id="instagram-logo" transform="translate(879.879760, 399.875752)">
                    <path d="M14.3645278,0 L5.4749169,0 C2.45604955,0 0,2.4561669 0,5.47503425 L0,14.3646451 C0,17.3836298 2.45604955,19.8396794 5.4749169,19.8396794 L14.3645278,19.8396794 C17.3836298,19.8396794 19.8396794,17.3835125 19.8396794,14.3646451 L19.8396794,5.47503425 C19.8397967,2.4561669 17.3836298,0 14.3645278,0 Z M18.0795242,14.3646451 C18.0795242,16.4130155 16.4130155,18.0794069 14.3646451,18.0794069 L5.4749169,18.0794069 C3.42666381,18.0795242 1.76027251,16.4130155 1.76027251,14.3646451 L1.76027251,5.47503425 C1.76027251,3.42678116 3.42666381,1.76027251 5.4749169,1.76027251 L14.3645278,1.76027251 C16.4128982,1.76027251 18.0794069,3.42678116 18.0794069,5.47503425 L18.0794069,14.3646451 L18.0795242,14.3646451 Z" id="Shape"></path>
                    <path d="M9.91983968,4.95991984 C7.18489869,4.95991984 4.95991984,7.18494976 4.95991984,9.91995354 C4.95991984,12.6548435 7.18489869,14.8797595 9.91983968,14.8797595 C12.6547807,14.8797595 14.8797595,12.6548435 14.8797595,9.91995354 C14.8797595,7.18494976 12.6547807,4.95991984 9.91983968,4.95991984 Z M9.91983968,13.1717627 C8.12671759,13.1717627 6.6677636,11.7130029 6.6677636,9.91983968 C6.6677636,8.12656257 8.12660373,6.66768894 9.91983968,6.66768894 C11.7130756,6.66768894 13.1719158,8.12656257 13.1719158,9.91983968 C13.1719158,11.7130029 11.7129618,13.1717627 9.91983968,13.1717627 Z" id="Shape"></path>
                    <path d="M15.3757515,2.9759519 C14.9848196,2.9759519 14.6007866,3.13421844 14.3246994,3.41152305 C14.0472595,3.68747495 13.8877756,4.07164329 13.8877756,4.46392786 C13.8877756,4.85499499 14.0473948,5.23902806 14.3246994,5.51633267 C14.6006513,5.79228457 14.9848196,5.95190381 15.3757515,5.95190381 C15.7680361,5.95190381 16.1508517,5.79228457 16.4281563,5.51633267 C16.7054609,5.23902806 16.8637275,4.85485972 16.8637275,4.46392786 C16.8637275,4.07164329 16.7054609,3.68747495 16.4281563,3.41152305 C16.1522044,3.13421844 15.7680361,2.9759519 15.3757515,2.9759519 Z" id="Shape"></path>
                </g>
            </g>
        </g>
    </g>
</svg>