<?xml version="1.0" encoding="UTF-8"?>
<svg width="21px" height="20px" viewBox="0 0 21 20" version="1.1" xmlns="http://www.w3.org/2000/svg" xmlns:xlink="http://www.w3.org/1999/xlink">
    <!-- Generator: Sketch 51.3 (57544) - http://www.bohemiancoding.com/sketch -->
    <title>Group</title>
    <desc>Created with Sketch.</desc>
    <defs></defs>
    <g id="Page-1" stroke="none" stroke-width="1" fill="none" fill-rule="evenodd">
        <g id="business-info---design-2" transform="translate(-874.000000, -547.000000)" fill="#FFFFFF" fill-rule="nonzero">
            <g id="Group-25" transform="translate(-5.000000, -1.000000)">
                <g id="Group" transform="translate(879.582164, 548.375752)">
                    <path d="M2.39257204,0.0131041393 C3.66477064,0.0141402806 4.71401603,1.06490941 4.71127331,2.34344676 C4.70822583,3.6822022 3.59723862,4.69122092 2.37690802,4.66214802 C1.13914588,4.68719826 0.051380416,3.65337309 0.0516242139,2.33460908 C0.0516242139,1.05558413 1.10495322,0.0121289476 2.39257204,0.0131041393 Z" id="Shape"></path>
                    <path d="M3.74418782,19.349694 L1.0184659,19.349694 C0.664715085,19.349694 0.377947758,19.0629267 0.377947758,18.7091759 L0.377947758,7.08111119 C0.377947758,6.72736038 0.664715085,6.44059305 1.0184659,6.44059305 L3.74418782,6.44059305 C4.09793864,6.44059305 4.38470596,6.72736038 4.38470596,7.08111119 L4.38470596,18.7092368 C4.38464501,19.0629267 4.09793864,19.349694 3.74418782,19.349694 Z" id="Shape"></path>
                    <path d="M19.4358156,10.524879 C19.4358156,8.08714339 17.4596505,6.11091728 15.0218539,6.11091728 L14.3227633,6.11091728 C12.9890667,6.11091728 11.8107912,6.77636376 11.1020706,7.79348877 C11.0247867,7.90435588 10.953232,8.01948946 10.8875284,8.13834096 C10.8647943,8.13492779 10.8513244,8.13316025 10.8510197,8.13376975 L10.8510197,6.7064547 C10.8510197,6.55962739 10.7319854,6.4405321 10.5850971,6.4405321 L7.18442057,6.4405321 C7.03759326,6.4405321 6.91849796,6.55956644 6.91849796,6.7064547 L6.91849796,19.0838933 C6.91849796,19.2307206 7.03747136,19.349755 7.18429867,19.3498159 L10.6590898,19.3506692 C10.805978,19.3507301 10.9250733,19.2316349 10.9250733,19.0847466 L10.9250733,11.9339701 C10.9250733,10.6979146 11.9109312,9.67158621 13.1469259,9.65762877 C13.7778749,9.65049769 14.3498858,9.90331615 14.7621482,10.3158223 C15.168986,10.7224163 15.4205245,11.2846143 15.4205245,11.9053239 L15.4205245,19.0856608 C15.4205245,19.2324881 15.5395588,19.3515225 15.6863252,19.3515834 L19.1697102,19.3524367 C19.3165984,19.3524977 19.4356937,19.2334024 19.4356937,19.0865141 L19.4356937,10.524879 L19.4358156,10.524879 Z" id="Shape"></path>
                </g>
            </g>
        </g>
    </g>
</svg>