<?xml version="1.0" encoding="UTF-8"?>
<svg width="12px" height="20px" viewBox="0 0 12 20" version="1.1" xmlns="http://www.w3.org/2000/svg" xmlns:xlink="http://www.w3.org/1999/xlink">
    <!-- Generator: Sketch 51.3 (57544) - http://www.bohemiancoding.com/sketch -->
    <title>icon</title>
    <desc>Created with Sketch.</desc>
    <defs></defs>
    <g id="Page-1" stroke="none" stroke-width="1" fill="none" fill-rule="evenodd">
        <g id="business-info---design-2" transform="translate(-879.000000, -200.000000)" fill="#FFFFFF" fill-rule="nonzero">
            <g id="Group-25" transform="translate(-5.000000, -1.000000)">
                <g id="icon" transform="translate(883.847695, 201.478958)">
                    <path d="M10.2698683,0 L2.08883481,0 C1.30587604,0 0.673840538,0.634869739 0.673840538,1.41641139 L0.673840538,18.0293086 C0.673840538,18.8101417 1.30587604,19.4443029 2.08883481,19.4443029 L10.2698683,19.4443029 C11.05141,19.4443029 11.6848626,18.8101417 11.6848626,18.0293086 L11.6848626,1.41641139 C11.6848626,0.634869739 11.05141,0 10.2698683,0 Z M4.16066419,0.860191812 L8.19945605,0.860191812 C8.30148869,0.860191812 8.38439021,1.01253221 8.38439021,1.20100916 C8.38439021,1.38948612 8.30148869,1.54253507 8.19945605,1.54253507 L4.16066419,1.54253507 C4.05792299,1.54253507 3.97643859,1.38948612 3.97643859,1.20100916 C3.97643859,1.01253221 4.05792299,0.860191812 4.16066419,0.860191812 Z M6.18006012,18.0463141 C5.68194246,18.0463141 5.27664615,17.6410177 5.27664615,17.1421915 C5.27664615,16.6433653 5.68194246,16.2394861 6.18006012,16.2394861 C6.67676066,16.2394861 7.08205697,16.6433653 7.08205697,17.1421915 C7.08205697,17.6410177 6.67676066,18.0463141 6.18006012,18.0463141 Z M10.6248569,14.9506155 L1.73455482,14.9506155 L1.73455482,2.3899728 L10.6248569,2.3899728 L10.6248569,14.9506155 Z" id="Shape"></path>
                </g>
            </g>
        </g>
    </g>
</svg>