<?xml version="1.0" encoding="UTF-8"?>
<svg width="21px" height="20px" viewBox="0 0 21 20" version="1.1" xmlns="http://www.w3.org/2000/svg" xmlns:xlink="http://www.w3.org/1999/xlink">
    <!-- Generator: Sketch 51.3 (57544) - http://www.bohemiancoding.com/sketch -->
    <title>phone-receiver</title>
    <desc>Created with Sketch.</desc>
    <defs></defs>
    <g id="Page-1" stroke="none" stroke-width="1" fill="none" fill-rule="evenodd">
        <g id="business-info---design-2" transform="translate(-874.000000, -151.000000)" fill="#FFFFFF" fill-rule="nonzero">
            <g id="Group-25" transform="translate(-5.000000, -1.000000)">
                <g id="phone-receiver" transform="translate(879.879760, 152.871743)">
                    <path d="M19.8302228,14.8744796 C19.8722629,15.1806537 19.7741122,15.4468636 19.5361824,15.6731094 L16.7427989,18.3084898 C16.6167816,18.4415948 16.4522933,18.5548318 16.2492654,18.6479075 C16.0462376,18.7411135 15.8467445,18.8010108 15.6507862,18.8275992 C15.6367843,18.8275992 15.5946756,18.8310246 15.5246316,18.8376799 C15.454725,18.8443025 15.3637125,18.8476954 15.2516971,18.8476954 C14.9855919,18.8476954 14.5549985,18.8044363 13.9599168,18.7178854 C13.3648351,18.6313346 12.6367694,18.418334 11.7757198,18.0789816 C10.9144643,17.7395639 9.93786453,17.2303722 8.84574889,16.5516022 C7.75363325,15.8728647 6.59143936,14.9410647 5.35927017,13.7563979 C4.3791356,12.8379737 3.56702409,11.9594809 2.92293565,11.1209523 C2.27884721,10.2823584 1.76077608,9.50702199 1.36872225,8.79491043 C0.976634098,8.08279888 0.682593724,7.43723981 0.486566809,6.85823322 C0.290539893,6.27922663 0.157521629,5.78008302 0.0875120159,5.36080239 C0.0175024032,4.94152175 -0.0105014419,4.61208697 0.00350048064,4.37249804 C0.0175024032,4.1329091 0.0245033645,3.99980414 0.0245033645,3.97318315 C0.0525072096,3.7868362 0.115515861,3.59716163 0.213529319,3.40415943 C0.311542777,3.21115723 0.430559118,3.0547589 0.570578344,2.93496444 L3.36396189,0.279520422 C3.55998881,0.0931734741 3.78401957,0 4.03605417,0 C4.21807917,0 4.37910128,0.0499143611 4.5191205,0.149743083 C4.65913973,0.249571806 4.77815607,0.372693897 4.87616953,0.519109356 L7.1234781,4.57215548 C7.2494954,4.78512342 7.28450021,5.01805711 7.22849252,5.27095654 C7.17248483,5.52385597 7.05346848,5.73682391 6.87144349,5.90986036 L5.84230218,6.88818184 C5.81429834,6.91480283 5.78979497,6.95806194 5.76879209,7.01795918 C5.74778921,7.07785641 5.73728776,7.12777077 5.73728776,7.16770226 C5.79329545,7.44722268 5.91931276,7.76667459 6.11533967,8.12605799 C6.28336274,8.44550991 6.54239831,8.83484192 6.89244637,9.29405404 C7.24249444,9.75326617 7.73956269,10.2823258 8.38365113,10.8812981 C9.01373764,11.4936462 9.57381454,11.9694312 10.0638818,12.3089141 C10.5538462,12.6482012 10.9635397,12.8978709 11.2925849,13.0575969 C11.62163,13.2173228 11.8736646,13.3138239 12.0486544,13.3470023 L12.3111218,13.3969493 C12.3391256,13.3969493 12.3847348,13.3869338 12.4476748,13.3670007 C12.5106835,13.3470023 12.5561897,13.3237416 12.5842279,13.2970879 L13.781358,12.1390748 C14.0335298,11.9261394 14.3274329,11.8196555 14.6635134,11.8196555 C14.9016147,11.8196555 15.0905377,11.8595543 15.2305569,11.9394499 L15.2515255,11.9394499 L19.3050478,14.2155448 C19.5991911,14.3887118 19.7741808,14.6082697 19.8302228,14.8744796 Z" id="Shape"></path>
                </g>
            </g>
        </g>
    </g>
</svg>