<?xml version="1.0" encoding="UTF-8"?>
<svg width="20px" height="17px" viewBox="0 0 20 17" version="1.1" xmlns="http://www.w3.org/2000/svg" xmlns:xlink="http://www.w3.org/1999/xlink">
    <!-- Generator: Sketch 51.3 (57544) - http://www.bohemiancoding.com/sketch -->
    <title>Fill 2</title>
    <desc>Created with Sketch.</desc>
    <defs></defs>
    <g id="Page-1" stroke="none" stroke-width="1" fill="none" fill-rule="evenodd">
        <g id="business-info---design-2" transform="translate(-874.000000, -499.000000)" fill="#FFFFFF">
            <g id="Group-25" transform="translate(-5.000000, -1.000000)">
                <path d="M879.583325,514.785022 C881.343625,515.903825 883.431611,516.551388 885.669982,516.551388 C891.957878,516.551388 897.055313,511.441774 897.055313,505.140065 C897.055313,504.982719 897.052193,504.826463 897.045955,504.670789 C897.273455,504.491339 898.680172,503.361193 899.02505,502.634884 C899.02505,502.634884 897.882469,503.110631 896.764553,503.222606 C896.762232,503.222606 896.759693,503.223115 896.757444,503.223115 C896.757444,503.223115 896.759693,503.222024 896.763392,503.219479 C896.866551,503.150404 898.306711,502.167716 898.501639,500.996925 C898.501639,500.996925 897.693707,501.429191 896.562516,501.807288 C896.375205,501.869747 896.179044,501.931115 895.977006,501.987902 C895.247858,501.207714 894.211265,500.720842 893.060777,500.720842 C890.853818,500.720842 889.065443,502.512802 889.065443,504.723068 C889.065443,505.034925 889.101135,505.338566 889.168891,505.629991 C888.860576,505.617485 884.164096,505.353326 880.969004,501.475508 C880.969004,501.475508 879.059624,504.088302 882.107087,506.774897 C882.107087,506.774897 881.18069,506.73796 880.381608,506.259377 C880.381608,506.259377 880.088019,509.424556 883.538977,510.234046 C883.538977,510.234046 882.86003,510.491661 881.776646,510.30792 C881.776646,510.30792 882.38254,512.865599 885.448647,513.104455 C885.448647,513.104455 883.024054,515.29967 879.582164,514.784731 L879.583325,514.785022 Z" id="Fill-2"></path>
            </g>
        </g>
    </g>
</svg>