<?xml version="1.0" encoding="UTF-8"?>
<svg width="21px" height="20px" viewBox="0 0 21 20" version="1.1" xmlns="http://www.w3.org/2000/svg" xmlns:xlink="http://www.w3.org/1999/xlink">
    <!-- Generator: Sketch 51.3 (57544) - http://www.bohemiancoding.com/sketch -->
    <title>whatsapp-logo</title>
    <desc>Created with Sketch.</desc>
    <defs></defs>
    <g id="Page-1" stroke="none" stroke-width="1" fill="none" fill-rule="evenodd">
        <g id="business-info---design-2" transform="translate(-874.000000, -250.000000)" fill="#FFFFFF" fill-rule="nonzero">
            <g id="Group-25" transform="translate(-5.000000, -1.000000)">
                <g id="whatsapp-logo" transform="translate(879.879760, 251.078156)">
                    <path d="M19.6240307,9.6643487 C19.6240307,15.0018838 15.3113229,19.3286974 9.99037597,19.3286974 C8.30118302,19.3286974 6.71425307,18.8922244 5.33359349,18.1261924 L0,19.8396794 L1.73890716,14.6544689 C0.861712991,13.1982365 0.356503224,11.4902605 0.356503224,9.6643487 C0.356503224,4.32681363 4.66964712,0 9.99037597,0 C15.311759,0 19.6240307,4.32681363 19.6240307,9.6643487 Z M9.99037597,1.53911824 C5.52394659,1.53911824 1.89088438,5.18410822 1.89088438,9.6643487 C1.89088438,11.4422044 2.46412412,13.0886774 3.43376928,14.4280762 L2.42182343,17.4456914 L5.53441274,16.4455511 C6.8132454,17.2944689 8.34522806,17.7895792 9.99059401,17.7895792 C14.4563693,17.7895792 18.0900856,14.1450301 18.0900856,9.66478958 C18.0900856,5.1845491 14.4565873,1.53911824 9.99037597,1.53911824 Z M14.8551732,11.8901403 C14.7956469,11.7916032 14.6384367,11.7320842 14.4025122,11.6137074 C14.1661517,11.4953307 13.0048451,10.9219639 12.7889808,10.8432665 C12.5724623,10.7643487 12.4145979,10.7246693 12.2573876,10.9616433 C12.1001773,11.1988377 11.6475163,11.7320842 11.509494,11.8901403 C11.3716897,12.0486373 11.2341034,12.068477 10.9977429,11.9498798 C10.7618184,11.831503 10.0010602,11.5810822 9.09900889,10.7742685 C8.39712272,10.1464529 7.92309336,9.37138277 7.78528906,9.13396794 C7.6477028,8.89699399 7.7708981,8.76891784 7.88886033,8.65098196 C7.99526618,8.54472946 8.12522088,8.37432866 8.24318311,8.23611222 C8.36158142,8.09767535 8.40082949,7.99913828 8.47910756,7.84086172 C8.55825782,7.68280561 8.51879171,7.54458918 8.45948353,7.42577154 C8.40061144,7.30739479 7.92789035,6.14170341 7.73121395,5.66731463 C7.53453755,5.19336673 7.3380792,5.27228457 7.20005685,5.27228457 C7.06247059,5.27228457 6.90482421,5.25244489 6.74739588,5.25244489 C6.58996754,5.25244489 6.33398297,5.31174349 6.11746449,5.54871743 C5.90116407,5.78591182 5.2912928,6.35905812 5.2912928,7.52452906 C5.2912928,8.69022044 6.13708852,9.81645291 6.25548684,9.97428858 C6.37344907,10.1321242 7.88864228,12.6019439 10.2893154,13.550501 C12.6902065,14.4986172 12.6902065,14.1822846 13.1232434,14.1426052 C13.5558443,14.1031463 14.5200383,13.5696794 14.7175869,13.0168136 C14.9138272,12.4630661 14.9138272,11.9888978 14.8551732,11.8901403 Z" id="WhatsApp"></path>
                </g>
            </g>
        </g>
    </g>
</svg>