<?xml version="1.0" encoding="UTF-8"?>
<svg width="18px" height="18px" viewBox="0 0 18 18" version="1.1" xmlns="http://www.w3.org/2000/svg" xmlns:xlink="http://www.w3.org/1999/xlink">
    <!-- Generator: Sketch 52.2 (67145) - http://www.bohemiancoding.com/sketch -->
    <title>Clear</title>
    <desc>Created with Sketch.</desc>
    <g id="IOS-(light-design)" stroke="none" stroke-width="1" fill="none" fill-rule="evenodd" fill-opacity="0.5">
        <g id="saved-cards-on-merchant-checkout-+-with-no-active-goPay-account" transform="translate(-11.000000, -191.000000)" fill="#535353">
            <path d="M21.3637059,200 L23.6341667,197.729539 C24.0151459,197.34856 24.0131262,196.740028 23.6365492,196.363451 C23.2573467,195.984248 22.6483536,195.987941 22.2704608,196.365833 L20,198.636294 L17.7295392,196.365833 C17.3485601,195.984854 16.7400278,195.986874 16.3634508,196.363451 C15.9842484,196.742653 15.9879405,197.351646 16.3658333,197.729539 L18.6362941,200 L16.3658333,202.270461 C15.9848541,202.65144 15.9868738,203.259972 16.3634508,203.636549 C16.7426533,204.015752 17.3516464,204.012059 17.7295392,203.634167 L20,201.363706 L22.2704608,203.634167 C22.6514399,204.015146 23.2599722,204.013126 23.6365492,203.636549 C24.0157516,203.257347 24.0120595,202.648354 23.6341667,202.270461 L21.3637059,200 Z M20,209 C15.0294373,209 11,204.970563 11,200 C11,195.029437 15.0294373,191 20,191 C24.9705627,191 29,195.029437 29,200 C29,204.970563 24.9705627,209 20,209 Z" id="Clear"></path>
        </g>
    </g>
</svg>