<?xml version="1.0" encoding="UTF-8"?>
<svg width="100px" height="92px" viewBox="0 0 100 92" version="1.1" xmlns="http://www.w3.org/2000/svg" xmlns:xlink="http://www.w3.org/1999/xlink">
    <!-- Generator: Sketch 52.1 (67048) - http://www.bohemiancoding.com/sketch -->
    <title>warning (1)</title>
    <desc>Created with Sketch.</desc>
    <g id="IOS-(light-design)" stroke="none" stroke-width="1" fill="none" fill-rule="evenodd" opacity="0.5">
        <g id="Declined-payment-details" transform="translate(-138.000000, -242.000000)" fill="#9FA1A6" fill-rule="nonzero">
            <g id="warning-(1)" transform="translate(138.000000, 242.000000)">
                <path d="M50.3754245,30.7692308 C48.6119109,30.7692308 47.4358974,31.9449064 47.4358974,33.7087578 L47.4358974,54.8722713 C47.4358974,56.6357848 48.6115731,57.8117983 50.3754245,57.8117983 C52.138938,57.8117983 53.3149515,56.6361227 53.3149515,54.8722713 L53.3149515,33.7087578 C53.3149515,31.9449064 52.138938,30.7692308 50.3754245,30.7692308 Z" id="Shape"></path>
                <path d="M52.138938,67.5484234 C50.9632623,66.3727477 49.1994109,66.3727477 48.0237353,67.5484234 C47.4358974,68.1362613 47.4358974,69.3119369 47.4358974,69.8997748 C47.4358974,71.0754505 47.4358974,71.6632883 48.0237353,72.2511261 C48.6115731,72.838964 49.7872488,72.838964 50.3750866,72.838964 C50.9629245,72.838964 52.1386001,72.838964 51.5507623,72.2511261 C52.1386001,71.6632883 52.726438,70.4876126 52.726438,69.8997748 C52.7271137,68.7240991 52.7271137,68.1362613 52.138938,67.5484234 Z" id="Shape"></path>
                <path d="M97.4411318,68.1935811 L62.7563345,7.64222973 C60.4049831,2.93918919 55.1141047,0 49.8228885,0 C44.5320101,0 39.8289696,2.93952703 36.8894426,7.64222973 L2.20464527,68.1935811 C-0.734881757,72.8966216 -0.734881757,78.7753378 2.20464527,83.4783784 C4.55599662,88.1814189 9.846875,91.1206081 15.1380912,91.1206081 L84.5076858,91.1206081 C90.386402,91.1206081 95.0894426,88.1810811 97.4411318,83.4783784 C100.380659,78.7753378 100.380659,72.8966216 97.4411318,68.1935811 Z M92.7380912,81.127027 C91.5624155,84.0665541 88.6228885,85.8300676 85.0958615,85.8300676 L15.1380912,85.8300676 C12.1985642,85.8300676 9.259375,84.0665541 7.49586149,81.127027 C5.73234797,78.1875 5.73234797,74.660473 7.49586149,71.7209459 L42.1806588,11.1692568 C43.3563345,8.22972973 46.2958615,6.46621622 49.8228885,6.46621622 C53.3502534,6.46621622 56.2894426,8.22972973 58.0532939,11.1692568 L92.7380912,71.7206081 C94.5019426,74.6601351 94.5019426,78.1875 92.7380912,81.127027 Z" id="Shape"></path>
            </g>
        </g>
    </g>
</svg>