<?xml version="1.0" encoding="UTF-8"?>
<svg width="16px" height="16px" viewBox="0 0 16 16" version="1.1" xmlns="http://www.w3.org/2000/svg" xmlns:xlink="http://www.w3.org/1999/xlink">
    <!-- Generator: Sketch 52.2 (67145) - http://www.bohemiancoding.com/sketch -->
    <title>Clear</title>
    <desc>Created with Sketch.</desc>
    <g id="IOS-(light-design)" stroke="none" stroke-width="1" fill="none" fill-rule="evenodd">
        <g id="Select-saved-Card-" transform="translate(-324.000000, -187.000000)" fill="#979797">
            <path d="M333.212183,195 L335.23037,192.981813 C335.560788,192.651395 335.567223,192.102247 335.232488,191.767512 C334.895419,191.430443 334.354092,191.433725 334.018187,191.76963 L332,193.787817 L329.981813,191.76963 C329.651395,191.439212 329.102247,191.432777 328.767512,191.767512 C328.430443,192.104581 328.433725,192.645908 328.76963,192.981813 L330.787817,195 L328.76963,197.018187 C328.439212,197.348605 328.432777,197.897753 328.767512,198.232488 C329.104581,198.569557 329.645908,198.566275 329.981813,198.23037 L332,196.212183 L334.018187,198.23037 C334.348605,198.560788 334.897753,198.567223 335.232488,198.232488 C335.569557,197.895419 335.566275,197.354092 335.23037,197.018187 L333.212183,195 Z M332,203 C327.581722,203 324,199.418278 324,195 C324,190.581722 327.581722,187 332,187 C336.418278,187 340,190.581722 340,195 C340,199.418278 336.418278,203 332,203 Z" id="Clear"></path>
        </g>
    </g>
</svg>