<?xml version="1.0" encoding="UTF-8"?>
<svg width="18px" height="18px" viewBox="0 0 18 18" version="1.1" xmlns="http://www.w3.org/2000/svg" xmlns:xlink="http://www.w3.org/1999/xlink">
    <!-- Generator: Sketch 50.2 (55047) - http://www.bohemiancoding.com/sketch -->
    <title>Clear</title>
    <desc>Created with Sketch.</desc>
    <defs></defs>
    <g id="Payment-page" stroke="none" stroke-width="1" fill="none" fill-rule="evenodd">
        <g id="Main-screen" transform="translate(-856.000000, -94.000000)" fill="#535353">
            <g id="Group-9" transform="translate(482.000000, 45.000000)">
                <path d="M384.363706,58 L386.634167,55.7295392 C387.015146,55.3485601 387.013126,54.7400278 386.636549,54.3634508 C386.257347,53.9842484 385.648354,53.9879405 385.270461,54.3658333 L383,56.6362941 L380.729539,54.3658333 C380.34856,53.9848541 379.740028,53.9868738 379.363451,54.3634508 C378.984248,54.7426533 378.987941,55.3516464 379.365833,55.7295392 L381.636294,58 L379.365833,60.2704608 C378.984854,60.6514399 378.986874,61.2599722 379.363451,61.6365492 C379.742653,62.0157516 380.351646,62.0120595 380.729539,61.6341667 L383,59.3637059 L385.270461,61.6341667 C385.65144,62.0151459 386.259972,62.0131262 386.636549,61.6365492 C387.015752,61.2573467 387.012059,60.6483536 386.634167,60.2704608 L384.363706,58 Z M383,67 C378.029437,67 374,62.9705627 374,58 C374,53.0294373 378.029437,49 383,49 C387.970563,49 392,53.0294373 392,58 C392,62.9705627 387.970563,67 383,67 Z" id="Clear"></path>
            </g>
        </g>
    </g>
</svg>