<?xml version="1.0" encoding="UTF-8"?>
<svg width="7px" height="13px" viewBox="0 0 7 13" version="1.1" xmlns="http://www.w3.org/2000/svg" xmlns:xlink="http://www.w3.org/1999/xlink">
    <!-- Generator: Sketch 52.1 (67048) - http://www.bohemiancoding.com/sketch -->
    <title>goWeb-icons_3D-Security</title>
    <desc>Created with Sketch.</desc>
    <g id="Android" stroke="none" stroke-width="1" fill="none" fill-rule="evenodd">
        <g id="goWeb-icons_3D-Security" transform="translate(-1.000000, 0.000000)" fill="#FFFFFF">
            <g id="Group">
                <path d="M1.698,3.731 C1.698,2.184 2.955,0.924 4.505,0.924 C6.052,0.924 7.312,2.184 7.312,3.731 L7.312,4.712 C6.862,4.508 6.391,4.356 5.911,4.258 L5.911,3.731 C5.911,2.958 5.282,2.329 4.509,2.329 C3.736,2.329 3.107,2.958 3.107,3.731 L3.107,4.258 C2.623,4.357 2.153,4.508 1.705,4.712 L1.705,3.731 L1.698,3.731 Z" id="Path"></path>
                <path d="M7.744,5.321 C5.746,4.136 3.265,4.136 1.268,5.321 C1.094,5.871 0.998,6.46 0.998,7.075 C0.998,9.523 2.492,11.564 4.506,12.15 C6.52,11.564 8.014,9.524 8.014,7.075 C8.013,6.459 7.918,5.87 7.744,5.321 Z M5.206,9.345 L3.804,9.345 L4.067,7.775 C3.913,7.647 3.804,7.46 3.804,7.242 C3.804,6.854 4.117,6.541 4.505,6.541 C4.893,6.541 5.206,6.854 5.206,7.242 C5.206,7.459 5.101,7.647 4.943,7.775 L5.206,9.345 Z" id="Shape" fill-rule="nonzero"></path>
            </g>
        </g>
    </g>
</svg>