<?xml version="1.0" encoding="UTF-8"?>
<svg width="18px" height="24px" viewBox="0 0 18 24" version="1.1" xmlns="http://www.w3.org/2000/svg" xmlns:xlink="http://www.w3.org/1999/xlink">
    <!-- Generator: Sketch 51.3 (57544) - http://www.bohemiancoding.com/sketch -->
    <title>Group 13</title>
    <desc>Created with Sketch.</desc>
    <defs></defs>
    <g id="Payment-page" stroke="none" stroke-width="1" fill="none" fill-rule="evenodd">
        <g id="Main-screen" transform="translate(-509.000000, -182.000000)">
            <g id="Group-9" transform="translate(482.000000, 25.000000)">
                <g id="Group-6" transform="translate(2.000000, 39.000000)">
                    <g id="Group-13" transform="translate(1.000000, 97.000000)">
                        <rect id="Rectangle-3" x="0" y="0" width="65" height="65"></rect>
                        <g id="bill" transform="translate(24.000000, 21.000000)">
                            <rect id="Rectangle-path" x="2.4" y="7.2" width="1" height="1"></rect>
                            <rect id="Rectangle-path" x="4.8" y="13.2" width="10.8" height="1"></rect>
                            <rect id="Rectangle-path" x="2.4" y="10.8" width="1" height="1"></rect>
                            <rect id="Rectangle-path" x="2.4" y="13.2" width="1" height="1"></rect>
                            <rect id="Rectangle-path" x="4.8" y="10.8" width="10.8" height="1"></rect>
                            <rect id="Rectangle-path" x="4.8" y="7.2" width="10.8" height="1"></rect>
                            <path d="M17.1163636,0 L0.883636364,0 C0.392727273,0 0,0.402234637 0,0.905027933 L0,23.5307263 C0,23.698324 0.0654545455,23.8659218 0.130909091,24 L2.48727273,21.5195531 C2.81454545,21.150838 3.40363636,21.150838 3.73090909,21.4860335 L6.12,23.8659218 L8.37818182,21.4860335 C8.70545455,21.1173184 9.29454545,21.1173184 9.62181818,21.452514 L11.8472727,23.6648045 L13.9418182,21.452514 C14.2690909,21.0837989 14.8581818,21.0837989 15.1854545,21.4189944 L17.8036364,24 C17.9345455,23.8324022 18,23.6312849 18,23.396648 L18,0.905027933 C18,0.402234637 17.6072727,0 17.1163636,0 Z M3.01090909,14.7486034 L2.52,14.7486034 L2.52,13.7765363 L3.01090909,13.7765363 L3.01090909,14.7486034 Z M3.01090909,11.2960894 L2.52,11.2960894 L2.52,10.3240223 L3.01090909,10.3240223 L3.01090909,11.2960894 Z M3.01090909,7.87709497 L2.52,7.87709497 L2.52,6.90502793 L3.01090909,6.90502793 L3.01090909,7.87709497 Z M15.4472727,14.7486034 L4.45090909,14.7486034 L4.45090909,13.7765363 L15.4472727,13.7765363 L15.4472727,14.7486034 Z M15.4472727,11.2960894 L4.45090909,11.2960894 L4.45090909,10.3240223 L15.4472727,10.3240223 L15.4472727,11.2960894 Z M15.4472727,7.87709497 L4.45090909,7.87709497 L4.45090909,6.90502793 L15.4472727,6.90502793 L15.4472727,7.87709497 Z" id="Shape" fill="#C9C9C9" fill-rule="nonzero"></path>
                        </g>
                    </g>
                </g>
            </g>
        </g>
    </g>
</svg>