<?xml version="1.0" encoding="UTF-8"?>
<svg width="13px" height="14px" viewBox="0 0 13 14" version="1.1" xmlns="http://www.w3.org/2000/svg" xmlns:xlink="http://www.w3.org/1999/xlink">
    <!-- Generator: Sketch 51.3 (57544) - http://www.bohemiancoding.com/sketch -->
    <title>Search Icon</title>
    <desc>Created with Sketch.</desc>
    <defs></defs>
    <g id="icons" stroke="none" stroke-width="1" fill="none" fill-rule="evenodd">
        <g id="Search-Icon-(active)" transform="translate(-13.000000, -14.000000)" fill="#7A797B">
            <g id="Pin" transform="translate(13.000000, 13.000000)">
                <path d="M8.99724818,9.50414663 C9.07736566,9.54059384 9.15227305,9.59161288 9.21775156,9.65709139 L12.649991,13.0893308 C12.9448449,13.3841847 12.9484764,13.858606 12.6535412,14.1535412 C12.360648,14.4464344 11.8812716,14.4419317 11.5893308,14.149991 L8.15709139,10.7177516 C8.09136995,10.6520301 8.04011707,10.5773874 8.00341407,10.4977995 C7.16716939,11.1270411 6.1271393,11.5 5,11.5 C2.23857625,11.5 0,9.26142375 0,6.5 C0,3.73857625 2.23857625,1.5 5,1.5 C7.76142375,1.5 10,3.73857625 10,6.5 C10,7.62746846 9.62682325,8.66777681 8.99724818,9.50414663 Z M5,10.5 C7.209139,10.5 9,8.709139 9,6.5 C9,4.290861 7.209139,2.5 5,2.5 C2.790861,2.5 1,4.290861 1,6.5 C1,8.709139 2.790861,10.5 5,10.5 Z" id="Search-Icon"></path>
            </g>
        </g>
    </g>
</svg>