<?xml version="1.0" encoding="utf-8"?>
<!-- Generator: Adobe Illustrator 22.1.0, SVG Export Plug-In . SVG Version: 6.00 Build 0)  -->
<svg version="1.1" id="Layer_1" xmlns="http://www.w3.org/2000/svg" xmlns:xlink="http://www.w3.org/1999/xlink" x="0px" y="0px"
	 viewBox="0 0 293 300" enable-background="new 0 0 293 300" xml:space="preserve">
<g>
	<g>
		<path fill-rule="evenodd" clip-rule="evenodd" fill="#0078A9" d="M293,193.7c0,7.3-4.7,10.7-13,10.7h-15.8v-7.3H280
			c1.5,0,2.7-0.3,3.2-0.8c0.5-0.5,1-1.3,1-2.2c0-1-0.5-2-1-2.4c-0.5-0.5-1.4-0.8-2.9-0.8c-7.5-0.3-17.1,0.3-17.1-10.6
			c0-4.9,3.2-10.2,11.7-10.2h16.3v7.3h-15c-1.5,0-2.5,0-3.2,0.5c-0.8,0.8-1.3,1.5-1.3,2.7c0,1.3,0.8,2,1.7,2.4c1,0.3,2,0.5,3.2,0.5
			h4.5c4.6,0,7.5,1,9.6,2.7C292,188.1,293,190.3,293,193.7 M258.7,186.3c-2-1.7-5-2.7-9.6-2.7h-4.5c-1.1,0-2.2-0.3-3.2-0.5
			c-0.9-0.4-1.7-1.1-1.7-2.4c0-1.1,0.3-1.9,1.3-2.7c0.6-0.5,1.7-0.5,3.2-0.5h15v-7.3H243c-8.8,0-11.7,5.4-11.7,10.2
			c0,10.8,9.6,10.3,17.1,10.6c1.5,0,2.4,0.3,2.9,0.8c0.5,0.4,1,1.4,1,2.4c0,0.9-0.5,1.7-1,2.2c-0.8,0.5-1.7,0.8-3.2,0.8h-15.8v7.3
			h15.8c8.3,0,13-3.4,13-10.7C261.1,190.3,260,188.1,258.7,186.3 M227.3,197.4h-19.2v-6.9h18.9v-6.9h-18.9v-6.2h19.2v-7.2h-27.3
			v34.2h27.3V197.4z M191.3,171.9c-2.7-1.4-5.9-1.7-10.1-1.7h-18.7v34.2h8.3V192h8.8c2.9,0,4.6,0.3,5.9,1.5c1.4,1.7,1.4,4.6,1.4,6.9
			v4.1h8.2v-6.6c0-3.1-0.3-4.6-1.3-6.3c-0.8-1-2.2-2.3-4.2-2.9c2.3-0.8,5.9-3.7,5.9-9.1C195.4,175.6,194,173.5,191.3,171.9
			 M144.9,170.3h-26.1l-10.6,11.2l-9.9-11.2h-33v34.2h32.5l10.4-11.2l10.1,11.2h15.8V193h10.3c7,0,14.1-1.9,14.1-11.5
			C158.6,172.2,151.3,170.3,144.9,170.3 M184.7,184.4c-1.3,0.5-2.4,0.5-3.9,0.5l-9.9,0.3v-7.8h9.9c1.5,0,2.9,0,3.9,0.6
			c1,0.5,1.7,1.5,1.7,2.9C186.3,182.5,185.7,183.7,184.7,184.4 M144.9,186.1h-10.8v-8.7h10.8c2.9,0,4.8,1.1,4.8,4.1
			C149.8,184.4,147.9,186.1,144.9,186.1 M113.5,187.4l12.6-13.4v27.6L113.5,187.4z M93.6,197.4H73.4v-6.9h18.1v-6.9H73.4v-6.2h20.5
			l9,10L93.6,197.4z M270.4,145.5h-11.7l-15.4-25.6v25.6h-16.6l-3.2-7.5h-17.1l-3.2,7.5h-9.6c-3.9,0-9-0.9-12-3.8
			c-2.7-2.9-4.2-6.9-4.2-13c0.1-5.1,0.8-9.7,4.5-13.4c2.4-2.7,6.9-4,12.5-4h7.8v7.4h-7.8c-2.9,0-4.7,0.5-6.4,1.9
			c-1.5,1.5-2.2,4.2-2.2,7.8c0,3.7,0.6,6.4,2.2,8.2c1.1,1.1,3.4,1.7,5.6,1.7h3.7l11.7-26.9h12.1l13.8,32.3v-32.3h12.6L262,135v-23.7
			h8.4V145.5z M173.5,111.3h-8.3v34.2h8.3V111.3z M156.1,112.8c-2.7-1.5-5.6-1.5-9.8-1.5h-18.7v34.2h8v-12.4h8.8
			c2.9,0,4.8,0.3,6.1,1.4c1.4,1.8,1.1,4.7,1.1,6.6v4.3h8.4v-6.8c0-2.9-0.3-4.5-1.5-6.1c-0.8-1-2.2-2.2-3.9-2.9
			c2.3-1,5.9-3.7,5.9-9.1C160.5,116.7,158.8,114.5,156.1,112.8 M121.7,138.5h-19.1v-6.9h18.9v-7h-18.9v-6.1h19.1v-7.1H94.4v34.2
			h27.4V138.5z M88.3,111.3H74.9l-10.1,23.2l-10.7-23.2H41v32.3l-14-32.3H14.9L0.3,145.5H9l3.1-7.5h17.2l3.1,7.5H49v-26.8l12,26.8h7
			l12-26.8v26.8h8.3V111.3z M220.6,130.7l-5.6-13.5l-5.6,13.5H220.6z M149.8,125.2c-1.3,0.8-2.4,0.8-4.1,0.8h-10.1v-7.5h10.1
			c1.4,0,3.1,0,4.1,0.5c1,0.6,1.5,1.7,1.5,3.2C151.3,123.6,150.8,124.8,149.8,125.2 M15,130.7l5.7-13.5l5.6,13.5H15z M291,4H0v123.3
			l9.9-22.7h21.3l2.9,5.6v-5.6H59l5.6,12.1l5.5-12.1h79.2c3.7,0,6.9,0.6,9.3,2.7v-2.7h21.8v2.7c3.6-2,8.3-2.7,13.6-2.7h31.5l2.9,5.6
			v-5.6h23.2l3.4,5.6v-5.6h22.7v47.9h-22.9l-4.5-7.3v7.3h-28.5l-3.2-7.8h-7l-3.2,7.8h-14.9c-5.9,0-10.2-1.4-13.1-2.9v2.9h-35.4v-11
			c0-1.5-0.3-1.8-1.3-1.8h-1.1v12.8H74.1v-6.1l-2.4,6.1H57.3l-2.4-5.9v5.9H27.3l-2.9-7.8h-7l-3.2,7.8H0v144.5h291v-87.7
			c-3.1,1.4-7.5,2.2-11.8,2.2h-21.3v-2.9c-2.4,1.9-6.9,2.9-11,2.9h-66.9v-11c0-1.5-0.3-1.5-1.5-1.5h-1.1v12.5h-22v-13
			c-3.7,1.8-7.8,1.8-11.5,1.8h-2.4v11.2h-26.9l-6.4-7.4l-7,7.4H58.1v-48H102l6.2,7.4l6.9-7.4h29.5c3.4,0,9,0.5,11.5,2.9v-2.9h26.4
			c2.7,0,7.8,0.5,11.2,2.9v-2.9h39.7v2.9c2.3-1.9,6.4-2.9,10.1-2.9h22.2v2.9c2.4-1.7,5.9-2.9,10.3-2.9h15V4z"/>
	</g>
</g>
</svg>
