<?xml version="1.0" encoding="utf-8"?>
<!-- Generator: Adobe Illustrator 22.1.0, SVG Export Plug-In . SVG Version: 6.00 Build 0)  -->
<svg version="1.1" id="Layer_1" xmlns="http://www.w3.org/2000/svg" xmlns:xlink="http://www.w3.org/1999/xlink" x="0px" y="0px"
	 viewBox="0 0 300 300" enable-background="new 0 0 300 300" xml:space="preserve">
<g>
	<path fill="#E30311" d="M150.5,300c-1.3-1.1-2.1-1.7-2.8-2.4c-17.7-17.7-35.3-35.4-53.1-53c-1.7-1.7-1.9-2.9-0.2-4.7
		c1.7-1.7,3.2-3.8,4.7-5.7c1-1.2,1.9-1.7,3.6-1.3c13.1,3,25.5-0.3,37.6-4.7c29.8-10.9,55.3-29,79.6-48.9
		c19.6-16,37.4-33.7,49.2-56.5c1.1-2.2,2-2.3,3.7-0.6c8.3,8.4,16.6,16.8,25,25c1.9,1.9,1.8,3.1-0.2,4.6c-0.6,0.4-1,1-1.5,1.5
		c-47.5,47.6-95.1,95.2-142.6,142.8C152.5,297.3,151.6,298.6,150.5,300z"/>
	<path fill="#E30311" d="M67.9,81.7C94.6,54.9,121.4,28.1,148,1.2c1.3-1.3,2.1-1.8,3.7-0.2c21.7,21.9,43.4,43.7,65.2,65.6
		c0.1,0.1,0,0.3,0,0.9c-18.8,7.5-36.9,16.6-53.8,28.1c-17,11.6-32.1,25.2-43.8,42.5c-1.9-1.4-1-3.3-1-4.8c-0.1-23.8-0.1-47.6,0-71.4
		c0-4.2-0.7-4.7-4.5-2.7c-14.8,8.1-29.7,16-44.5,24C68,83.5,67.7,82.9,67.9,81.7z"/>
	<path fill="#E30311" d="M207.8,131.5c-0.2,8.1-1.5,16.5-3.4,24.7c-3.8,16.3-12.7,29.3-25.6,39.5c-10.7,8.5-22.2,15.5-35.7,18.7
		c-12.4,3-20.7-2-23-14.4c-9.2-49.4,21.9-88.7,61-99.4c14.8-4.1,24.1,2.2,26.3,17.3C208,122.4,208.5,126.8,207.8,131.5z"/>
	<path fill="#E30311" d="M51.3,201.5c-4.6-4.7-8.3-8.6-12.1-12.4C27,176.9,14.8,164.7,2.6,152.5c-1.9-1.9-2.8-3-0.4-5.4
		c15.8-15.6,31.4-31.3,47.1-47c0.4-0.4,1-0.8,2-1.7C51.3,132.8,51.3,166.5,51.3,201.5z"/>
</g>
</svg>
