<?xml version="1.0" encoding="utf-8"?>
<!-- Generator: Adobe Illustrator 22.1.0, SVG Export Plug-In . SVG Version: 6.00 Build 0)  -->
<svg version="1.1" id="Layer_1" xmlns="http://www.w3.org/2000/svg" xmlns:xlink="http://www.w3.org/1999/xlink" x="0px" y="0px"
	 viewBox="0 0 690 300" enable-background="new 0 0 690 300" xml:space="preserve">
<g>
	<g>
		<path fill="#006E95" d="M455.5,140.1c-1.4,4.3-2.6,8.1-3.8,11.9c-3.3,10.5-6.6,21.1-10,31.6c-1.6,5-5,7.5-10.2,7.5
			c-3.3,0-6.5,0-9.8,0c-4.4-0.1-8-2.5-9.3-6.7c-7.4-23-14.8-46-22.2-69c-0.3-1-0.5-2-0.5-3.1c0-2.3,1.1-3.5,3.4-3.5
			c4.9,0,9.7-0.1,14.6,0c4.6,0.1,8,2.8,9.3,7.3c3.8,12.6,7.5,25.3,11.2,37.9c0.1,0.3,0,0.6,0.6,0.7c0.8-1.1,0.9-2.5,1.3-3.7
			c3.4-11.6,6.8-23.3,10.2-35c1.5-5.1,4.3-7.2,9.6-7.2c3.8,0,7.5,0,11.3,0c4.9,0,7.8,2.1,9.2,6.8c3.6,12.4,7.3,24.8,10.9,37.2
			c0.2,0.6,0.4,1.3,0.6,2c0.9-0.3,0.9-1.1,1-1.7c3.6-12.1,7.2-24.2,10.8-36.3c1.6-5.4,4.9-7.9,10.5-7.9c4.3,0,8.6,0,12.9,0
			c3.2,0,4.4,1.5,4,4.6c-0.4,2.9-1.6,5.6-2.5,8.4c-6.6,20.7-13.3,41.4-20,62c-1.5,4.8-4.9,7.2-10,7.3c-3.1,0-6.3,0-9.4,0
			c-5.2,0-8.6-2.6-10.2-7.5c-4.3-13.7-8.6-27.4-12.9-41.1C456.1,141.9,455.9,141.3,455.5,140.1z"/>
		<path fill="#006E95" d="M609.4,108.9c2.2,0,4.4,0,6.7,0c4,0,6.5,1.8,7.7,5.7c3.3,10.8,6.5,21.5,9.8,32.3c1.4,4.7,3.1,9.4,5.8,13.5
			c1.9,2.9,4.3,5.3,7.9,6c1.3,0.3,2,0,2.3-1.4c4.6-16.8,9.3-33.6,13.9-50.4c1.1-4,3.3-5.7,7.3-5.7c4.7,0,9.3,0,14,0
			c3.2,0,4.7,1.9,3.8,5c-6.7,24.4-13.3,48.7-20.1,73.1c-1.9,7-4.6,13.7-8.8,19.7c-5.6,8-13.5,11.5-23.1,11.4
			c-6.3,0-12.5-0.4-18.7-1.5c-3.6-0.6-4.9-2.2-4.9-5.8c0-2.4,0-4.9,0-7.3c0.1-2.8,1.8-4.5,4.6-4.6c3.4-0.2,6.6,0.5,9.9,1
			c4.7,0.8,8.5-0.7,11.5-4.2c2.4-2.9,3.7-6.3,4.8-9.9c0.3-1-0.2-1.1-1-1.2c-2.4-0.1-4.7-0.3-7-0.9c-8.9-2.1-14.7-8-19.1-15.6
			c-3.7-6.5-6.1-13.5-8.3-20.6c-3.3-11.1-6.7-22.2-10-33.3c-1.1-3.7,0.2-5.4,4.1-5.4C604.8,108.9,607.1,108.9,609.4,108.9z"/>
		<path fill="#006E95" d="M288.2,121.9c2.1,0.5,3.1,2,3.2,4.1c0.1,3.1,0.1,6.3,0,9.4c-0.1,2.8-1.9,4.5-4.9,4.5c-8.7,0-17.4,0-26.1,0
			c-0.7,0.4-0.4,1-0.4,1.5c0,14.9,0,29.7,0,44.6c0,0.5-0.1,1,0.2,1.4c-0.6,2.6-1.9,3.8-4.4,3.8c-5.4,0-10.8,0-16.3,0
			c-2.6,0-4.3-1.6-4.6-4.2c-0.1-0.6,0-1.1,0-1.7c0-22,0-44.1,0-66.1c0-4.4,0.4-8.7,1.2-13.1c2.5-12.8,10.5-20.1,23.1-22.6
			c12.3-2.4,24.6-2,36.9-0.1c3.4,0.5,4.8,2.3,4.8,5.7c0,2.4,0,4.7,0,7.1c-0.1,3-1.8,4.7-4.8,4.8c-2.4,0.1-4.9,0-7.3-0.6
			c-5.8-1.3-11.5-0.8-17.2,0.3c-6.8,1.2-9.7,4.3-10.8,11.2c-0.5,3.2-1.2,6.5-0.2,9.8c0.3,0.4,0.8,0.3,1.2,0.3c8.4,0,16.8,0,25.2,0
			C287.5,122.1,287.8,122.1,288.2,121.9z"/>
		<path fill="#006E95" d="M557.2,118.1c4-2.8,7.7-5.4,11.9-7.2c6.7-2.8,13.6-3.7,20.8-3.6c2.5,0,4.2,1.7,4.3,4.2
			c0.1,4,0.1,8.1,0,12.1c-0.1,2.7-1.9,4.3-4.6,4.3c-3.7,0-7.4-0.1-11-0.4c-9.1-0.7-15.4,4-20.8,10.5c-0.6,0.7-0.4,1.6-0.4,2.4
			c0,15,0,30,0,45c0,4.2-1.5,5.7-5.6,5.7c-4.9,0-9.7,0-14.6,0c-3.5,0-5.2-1.7-5.2-5.1c0-24,0-48.1,0-72.1c0-3.4,1.7-5.1,5.2-5.1
			c5,0,10,0,15,0c3.6,0,5.2,1.6,5.2,5.2C557.2,115.3,557.2,116.5,557.2,118.1z"/>
		<path fill="#00679C" d="M382,187.8c-0.5-0.7-0.4-1.6-0.4-2.4c0-15.5,0-31,0-46.4c0-0.8-0.2-1.7,0.4-2.4c0.1,1,0.2,1.9,0.2,2.9
			c0,15.4,0,30.9,0,46.3C382.2,186.4,382,187.1,382,187.8z"/>
		<path fill="#00659F" d="M260.2,187.3c-0.6-0.7-0.4-1.6-0.4-2.4c0-14.2,0-28.4,0-42.6c0-0.9-0.3-1.8,0.6-2.5
			c0,14.9,0,29.9-0.1,44.8C260.3,185.6,260.2,186.5,260.2,187.3z"/>
		<path fill="#00679C" d="M288.2,121.9c-0.5,0.4-1.2,0.4-1.8,0.4c-8.1,0-16.2,0-24.3,0c-0.4,0-1.1,0.4-1.3-0.5
			C269.9,121.7,279,121.5,288.2,121.9z"/>
		<path fill="#006E95" d="M381.8,186.1c0-16,0-32,0-48c0-0.5-0.1-1.1,0.2-1.6c0-3.2-0.7-6.3-1.9-9.3c-3.8-10.3-11.8-15.6-22-18.2
			c-8.8-2.2-17.8-1.9-26.7-1.1c-5.6,0.5-11,1.6-16.1,3.9c-7,3.1-11.1,8.3-11.6,16.1c-0.2,3.7,1.6,5.6,5.3,5.6c3.5,0,6.9,0,10.4,0
			c2.8,0,5.4-0.7,7.1-2.9c3.9-4.9,9.3-6.1,15.1-6.2c8.9-0.3,13.5,3.1,14.8,10.7c0.1,0.7,0.2,1.4,0.2,2.1c0.2,3.1,0.9,2.9-2.6,2.9
			c-7.6,0-15.1,0-22.7,0c-5.8,0-11.5,0.9-16.9,3c-10,4-16.2,11.1-16.5,22.3c-0.3,10.4,4.2,18.4,13.6,22.7c15.2,7,30.4,6.5,45.1-2.1
			c0.8-0.4,1.4-1.2,2.4-1.3c0,0.4,0.1,0.7,0.1,1c0.1,3.9,1.6,5.4,5.4,5.4c4.3,0,8.6,0,12.9,0c2.5,0,3.8-1,4.5-3.4
			C381.7,187.2,381.8,186.7,381.8,186.1z M356.9,159c-0.1,2.8,0,5.5,0,8.3c0,0.8,0,1.5-0.8,2c-7.6,4.5-15.6,7.3-24.5,5.9
			c-6.8-1.1-10.3-7.6-7.1-13.1c1.8-3.1,4.7-4.5,8.1-4.7c3.9-0.2,7.8,0,11.6,0c0,0,0-0.1,0-0.1c3.6,0,7.2,0.1,10.8,0
			C356.4,157.1,357,157.5,356.9,159z"/>
		<path fill="#00679C" d="M333.6,156.5c7.5,0,15.1,0,22.6,0c0,0.1,0,0.1,0,0.2c-7.6,0-15.1,0-22.7,0
			C333.5,156.7,333.6,156.6,333.6,156.5z"/>
	</g>
	<g>
		<circle fill="#FFFFFF" cx="98.4" cy="150" r="97.3"/>
		<radialGradient id="SVGID_1_" cx="131.9404" cy="72.6298" r="204.6739" gradientUnits="userSpaceOnUse">
			<stop  offset="0" style="stop-color:#FFFFFF;stop-opacity:0"/>
			<stop  offset="8.024552e-02" style="stop-color:#F6F6F6;stop-opacity:8.494516e-02"/>
			<stop  offset="0.2141" style="stop-color:#DCDCDC;stop-opacity:0.2266"/>
			<stop  offset="0.3852" style="stop-color:#B2B2B2;stop-opacity:0.4077"/>
			<stop  offset="0.5867" style="stop-color:#787878;stop-opacity:0.6211"/>
			<stop  offset="0.8113" style="stop-color:#2F2F2F;stop-opacity:0.8588"/>
			<stop  offset="0.9447" style="stop-color:#000000"/>
		</radialGradient>
		<circle opacity="0.6" fill="url(#SVGID_1_)" cx="98.4" cy="150" r="97.3"/>
		<linearGradient id="SVGID_2_" gradientUnits="userSpaceOnUse" x1="56.1832" y1="232.731" x2="113.7417" y2="173.0871">
			<stop  offset="0" style="stop-color:#004359"/>
			<stop  offset="1" style="stop-color:#006E96"/>
		</linearGradient>
		<path fill="url(#SVGID_2_)" d="M30.4,219.6c0,0,24.4,7.9,67.6-54.8L85.2,157c0,0-3.9-2.6,0-6.5l48.4-17.1c0,0,5.8-3.1,6.7,3.1
			c0.8,6.3,6.3,48,6.3,48s3.3,8.1-3.8,7.9l-12.7-7.5c0,0-26.7,48.2-62.6,57.3C67.5,242.3,43.3,234.8,30.4,219.6z"/>
		<path fill="#006E96" d="M129.5,57.8c0,0,22.8,6.1,37,22.7c0,0,3.9,25.7-9.9,53.4c0,0-5.8,4.6-6.7-4.6s-1.7-12.5-1.7-12.5
			l-20.4,6.7c0,0-5,2.5-5.6-3.5C122.2,119.9,142.2,77.8,129.5,57.8z"/>
	</g>
</g>
</svg>
