<?xml version="1.0" encoding="utf-8"?>
<!-- Generator: Adobe Illustrator 22.1.0, SVG Export Plug-In . SVG Version: 6.00 Build 0)  -->
<svg version="1.1" id="Layer_1" xmlns="http://www.w3.org/2000/svg" xmlns:xlink="http://www.w3.org/1999/xlink" x="0px" y="0px"
	 viewBox="0 0 583.6 300" enable-background="new 0 0 583.6 300" xml:space="preserve">
<g>
	<path fill="#1D252C" d="M495.8,152.3l-2,0.3v28.8l-1.7-0.5l-0.5-0.2c-1.9-0.6-6.5-1.9-10.9-1.9c-24,0-29.1,18.2-29.1,33.4
		c0,20.9,11.7,32.9,32.2,32.9c8.6,0,15.1-0.9,21.5-3c5.9-1.9,8.1-4.6,8.1-10.4v-82.4C507.5,150.3,501.6,151.3,495.8,152.3
		 M493.8,229.7l-1.1,0.2c-3.8,0.8-5.2,1-8,1c-6.4,0-14.1-3.3-14.1-18.8c0-8,1.4-18.6,13.3-18.6h0.1c2,0.1,4.4,0.4,8.8,1.7l1,0.3
		V229.7z"/>
	<path fill="#1D252C" d="M556.9,178.4c-7.4,0-15,1.3-24.5,4.3l-6.2,1.9l2.1,13.9l6-2c6.3-2.1,14.2-3.4,20-3.4c2.6,0,10.7,0,10.7,8.8
		v3.8h-11.2c-20.4,0-29.9,6.5-29.9,20.5c0,12,8.7,19.1,23.4,19.1c4.6,0,10.8-0.8,16.3-2.2l0.3-0.1l0.3,0.1l1.8,0.3
		c5.8,1,11.7,2.1,17.4,3.2v-45.8C583.4,186,574.4,178.4,556.9,178.4 M565.3,230.3l-1,0.3l-3.7,1c-3.4,0.9-6.5,1.4-8.9,1.4
		c-5.6,0-9-2.8-9-7.5c0-3.1,1.4-8.3,10.6-8.3h12V230.3z"/>
	<path fill="#1D252C" d="M414.5,178.4c-7.4,0-15,1.3-24.5,4.3l-6.1,1.9l2.1,13.9l6-2c6.3-2.1,14.1-3.4,20-3.4c2.6,0,10.7,0,10.7,8.8
		v3.8h-11.2c-20.4,0-29.9,6.5-29.9,20.5c0,12,8.8,19.1,23.4,19.1c4.6,0,10.8-0.8,16.3-2.2l0.3-0.1l0.3,0l1.8,0.3
		c5.7,1,11.7,2.1,17.4,3.2v-45.8C441,185.9,432.1,178.4,414.5,178.4 M422.8,230.3l-1,0.3l-3.7,1c-3.4,0.9-6.5,1.4-8.9,1.4
		c-5.6,0-9-2.8-9-7.5c0-3.1,1.4-8.3,10.6-8.3h12V230.3z"/>
	<path fill="#1D252C" d="M345.6,178.6c-9.3,0-17,3.1-19.9,4.4l-0.7,0.3l-0.7-0.5c-3.9-2.9-9.8-4.3-17.8-4.3c-7.1,0-13.8,1-21.1,3.1
		c-6.2,1.9-8.7,4.9-8.7,10.5v52.3h19.5v-48.3l0.9-0.3c4-1.3,6.3-1.5,8.5-1.5c5.6,0,8.5,3,8.5,8.9v41.3h19.2v-42.2
		c0-2.5-0.5-4-0.6-4.2l-0.6-1.3l1.3-0.6c2.9-1.3,6.1-2,9.5-2c3.9,0,8.5,1.5,8.5,8.9v41.3h19.2v-43.3
		C370.9,186,362.6,178.6,345.6,178.6"/>
	<path fill="#1D252C" d="M550.9,52c-0.2,0-0.4,0-0.5,0c-11.2,0-22.7,3.1-26.9,9.1C521.2,64,520,67.7,520,72v0v29.1
		c0,2.5-0.5,3.4-0.6,3.7l-0.6,1.3h-35.4V85.8h0c-0.4-21.3-13.1-33-31.3-33h-2.2h-15.7c-0.8,5.2-1.3,8.9-2.1,14h17.8
		c9.3,0,14.2,8,14.2,20.1v20.4l-1.3-0.6c-0.2-0.1-1.7-0.6-4.2-0.6h-30.6c-0.6,3.9-1.3,8.9-2.1,14H520c3.2-0.6,6.9-1.2,10.2-1.8
		c4.8,2.3,13.6,3.6,19.8,3.6c20.5,0,33.7-13.7,33.7-34.8C583.6,66.1,570.8,52.4,550.9,52 M550.9,105.6c-2.8,0-7.6-0.3-11.4-1
		l-1.1-0.2V76.2c0-2.4-0.4-3.8-0.6-4l-0.6-1.2l1.2-0.5c0.3-0.1,0.6-0.2,0.9-0.3l0.2-0.1c0.4-0.2,0.9-0.3,1.3-0.4
		c0.2-0.1,0.4-0.1,0.6-0.2c4.3-1.2,8.3-1.1,10.1-1.2h0.1c11.9,0,13.3,10.6,13.3,18.6C564.9,102.4,557.3,105.6,550.9,105.6"/>
	<path fill="#1D252C" d="M385.7,128.6h0.9c20.4,0,29.9-6.8,29.9-23.4c0-12-8.7-21.5-23.4-21.5h-18.9c-5.6,0-9-3.2-9-8.6
		c0-3.7,1.4-8.3,10.6-8.3H417c0.9-5.3,1.4-8.7,2.2-14h-42.8c-19.9,0-29.9,8.3-29.9,22.3c0,13.8,8.7,21,23.4,21h18.9
		c5.6,0,9,4.5,9,9.2c0,3.1-1.4,9.4-10.6,9.4h-3.2l-60.3-0.1v0h-11c-9.3,0-15.8-5.3-15.8-17.5v-8.5c0-12.7,5.1-20.7,15.8-20.7h18
		c0.8-5.4,1.3-8.8,2.1-14h-22.3h-2.2c-18.3,0-30.9,12.3-31.3,33.6h-0.1v0.8l0.1,8.7c0.4,21.3,13.1,31.5,31.3,31.5h2.2H326l32.7,0.1
		v0h19.5H385.7L385.7,128.6z"/>
	<rect y="164.2" fill="#80BC00" width="246.9" height="82.3"/>
	<rect y="52" fill="#00A0DF" width="246.9" height="82.3"/>
</g>
</svg>
