<?xml version="1.0" encoding="utf-8"?>
<!-- Generator: Adobe Illustrator 22.1.0, SVG Export Plug-In . SVG Version: 6.00 Build 0)  -->
<svg version="1.1" id="Layer_1" xmlns="http://www.w3.org/2000/svg" xmlns:xlink="http://www.w3.org/1999/xlink" x="0px" y="0px"
	 viewBox="0 0 377.1 300" enable-background="new 0 0 377.1 300" xml:space="preserve">
<g>
	<g>
		<path fill="#221E20" d="M68.6,295.9v-19.4c0.4-6.3-4.4-11.9-10.7-12.3c-0.5,0-1,0-1.5,0c-4.4-0.3-8.5,1.8-10.9,5.5
			c-2.1-3.6-6.1-5.7-10.2-5.5c-3.6-0.2-7.1,1.6-9.1,4.6v-3.8h-6.7v30.9h6.8v-17c-0.5-4,2.2-7.6,6.2-8.2c0.5-0.1,0.9-0.1,1.4-0.1
			c4.5,0,6.7,2.9,6.7,8.2V296h6.8v-17.2c-0.5-4,2.3-7.6,6.3-8.2c0.4-0.1,0.9-0.1,1.3-0.1c4.6,0,6.8,2.9,6.8,8.2V296L68.6,295.9z
			 M169.2,264.9h-11.1v-9.4h-6.8v9.4h-6.1v6.2h6.3v14.2c0,7.2,2.8,11.5,10.7,11.5c3,0,5.9-0.8,8.4-2.4l-1.9-5.8
			c-1.8,1.1-3.9,1.7-6,1.7c-3.2,0-4.5-2.1-4.5-5.2v-14.1h11L169.2,264.9z M226.6,264.1c-3.3-0.1-6.5,1.6-8.2,4.5v-3.8h-6.7v30.9h6.7
			v-17.3c0-5.1,2.2-8,6.5-8c1.4,0,2.9,0.2,4.2,0.8l2.1-6.5c-1.5-0.5-3.2-0.8-4.8-0.8L226.6,264.1z M139.8,267.4
			c-3.8-2.3-8.2-3.4-12.6-3.2c-7.8,0-12.9,3.8-12.9,9.9c0,5,3.8,8.2,10.7,9.1l3.2,0.5c3.7,0.5,5.4,1.5,5.4,3.2
			c0,2.4-2.5,3.8-7.1,3.8c-3.7,0.1-7.3-1-10.3-3.2l-3.2,5.2c3.9,2.7,8.6,4.1,13.4,4c8.9,0,14.1-4.2,14.1-10.1
			c0-5.9-4.1-8.3-10.8-9.3l-3.2-0.5c-2.9-0.4-5.2-1-5.2-3c0-2.1,2.2-3.6,5.9-3.6c3.4,0,6.8,1,9.7,2.7L139.8,267.4z M320.1,264.1
			c-3.3-0.1-6.5,1.6-8.2,4.5v-3.8h-6.7v30.9h6.7v-17.3c0-5.1,2.2-8,6.5-8c1.4,0,2.9,0.2,4.2,0.8l2.1-6.5c-1.5-0.5-3.2-0.8-4.8-0.8
			L320.1,264.1z M233.4,280.3c-0.3,8.6,6.4,15.9,15,16.2c0.5,0,1,0,1.5,0c4,0.2,8-1.1,11.1-3.7l-3.2-5.4c-2.3,1.8-5.2,2.8-8.1,2.8
			c-5.5-0.4-9.5-5.2-9.1-10.7c0.4-4.9,4.2-8.7,9.1-9.1c2.9,0,5.8,1,8.1,2.8l3.2-5.4c-3.1-2.6-7.1-3.9-11.1-3.7
			c-8.6-0.5-16,6.1-16.5,14.7c0,0.5,0,1,0,1.5V280.3z M296.4,280.3v-15.4h-6.7v3.8c-2.3-3-5.9-4.7-9.7-4.5
			c-8.9,0-16.2,7.2-16.2,16.2c0,8.9,7.2,16.2,16.2,16.2c3.8,0.1,7.4-1.5,9.7-4.5v3.8h6.7V280.3z M271.4,280.3
			c0.3-5.2,4.7-9.1,9.9-8.8c5.2,0.3,9.1,4.7,8.8,9.9c-0.3,4.9-4.4,8.8-9.3,8.8c-5.1,0.1-9.3-4-9.4-9.2
			C271.3,280.8,271.3,280.6,271.4,280.3z M190.1,264.1c-8.9,0.1-16.1,7.5-16,16.4c0.1,8.9,7.5,16.1,16.4,16l0,0
			c4.7,0.2,9.2-1.3,12.8-4.2l-3.2-5c-2.6,2.1-5.7,3.2-9,3.2c-4.6,0.4-8.7-3-9.3-7.6h23c0-0.8,0-1.7,0-2.6
			C204.9,270.7,198.9,264.2,190.1,264.1L190.1,264.1z M190.1,270.2c4.2-0.1,7.7,3.3,7.8,7.5c0,0,0,0,0,0h-16.2
			c0.2-4.3,3.9-7.7,8.2-7.5H190.1z M358.8,280.4v-27.9h-6.5v16.2c-2.3-3-5.9-4.7-9.7-4.5c-8.9,0-16.2,7.2-16.2,16.2
			c0,8.9,7.2,16.2,16.2,16.2c3.8,0.1,7.4-1.5,9.7-4.5v3.8h6.5V280.4z M370,291.4c0.4,0,0.8,0.1,1.2,0.2c0.4,0.2,0.7,0.4,1,0.6
			c0.3,0.3,0.5,0.6,0.7,1c0.3,0.8,0.3,1.6,0,2.4c-0.2,0.4-0.4,0.7-0.7,1c-0.3,0.3-0.6,0.5-1,0.6c-0.4,0.2-0.8,0.3-1.2,0.3
			c-1.3,0-2.4-0.7-2.9-1.9c-0.3-0.8-0.3-1.6,0-2.4c0.2-0.4,0.4-0.7,0.7-1c0.3-0.3,0.6-0.5,1-0.6C369.2,291.4,369.7,291.3,370,291.4
			L370,291.4z M370,296.8c0.3,0,0.6-0.1,0.9-0.2c0.3-0.1,0.5-0.3,0.7-0.5c0.8-0.9,0.8-2.3,0-3.2c-0.2-0.2-0.5-0.4-0.7-0.5
			c-0.3-0.1-0.6-0.2-0.9-0.2c-0.3,0-0.6,0.1-0.9,0.2c-0.3,0.1-0.6,0.3-0.8,0.5c-0.8,0.9-0.8,2.3,0,3.2c0.2,0.2,0.5,0.4,0.8,0.5
			C369.4,296.8,369.7,296.8,370,296.8L370,296.8z M370.2,293c0.3,0,0.6,0.1,0.8,0.3c0.2,0.2,0.3,0.4,0.3,0.7c0,0.2-0.1,0.4-0.2,0.6
			c-0.2,0.2-0.4,0.3-0.7,0.3l0.9,1.1h-0.7l-0.9-1.1h-0.3v1.1h-0.6V293L370.2,293z M369.5,293.5v0.8h0.7c0.1,0,0.3,0,0.4,0
			c0-0.1,0-0.2,0-0.3c0-0.1,0-0.2,0-0.3c-0.1,0-0.3,0-0.4,0L369.5,293.5z M333.9,280.4c0.3-5.2,4.7-9.1,9.9-8.8
			c5.2,0.3,9.1,4.7,8.8,9.9c-0.3,4.9-4.4,8.8-9.3,8.8c-5.1,0.1-9.3-4-9.4-9.2C333.9,280.9,333.9,280.6,333.9,280.4z M106.6,280.4
			v-15.5h-6.7v3.8c-2.3-3-5.9-4.7-9.7-4.5c-8.9,0-16.2,7.2-16.2,16.2c0,8.9,7.2,16.2,16.2,16.2c3.8,0.1,7.4-1.5,9.7-4.5v3.8h6.7
			V280.4z M81.5,280.4c0.3-5.2,4.7-9.1,9.9-8.8c5.2,0.3,9.1,4.7,8.8,9.9c-0.3,4.9-4.4,8.8-9.3,8.8c-5.1,0.1-9.4-4-9.5-9.1
			C81.4,280.9,81.4,280.7,81.5,280.4L81.5,280.4z"/>
		<rect x="137.5" y="29.1" fill="#EA611C" width="102" height="183.2"/>
		<path id="_Path__9_" fill="#E31221" d="M144,120.8c0-35.8,16.4-69.6,44.5-91.6C137.9-10.6,64.7-1.9,24.9,48.7
			c-39.8,50.6-31,123.9,19.6,163.6c42.3,33.2,101.7,33.2,144,0C160.4,190.3,144,156.5,144,120.8z"/>
		<path fill="#F49D1E" d="M377.1,120.8c0,64.4-52.2,116.5-116.5,116.5c-26.1,0-51.5-8.8-72-24.9c50.6-39.8,59.4-113,19.6-163.6
			c-5.7-7.3-12.3-13.9-19.6-19.6c50.6-39.8,123.8-31,163.6,19.6C368.3,69.2,377.1,94.6,377.1,120.8L377.1,120.8z"/>
		<path fill="#F49D1E" d="M365.9,192.9v-3.8h1.5v-0.8h-3.9v0.8h1.7v3.8H365.9z M373.4,192.9v-4.5h-1.2l-1.4,3.2l-1.4-3.2h-1v4.5h0.8
			v-3.4l1.3,2.9h0.9l1.3-2.9v3.4L373.4,192.9z"/>
	</g>
</g>
</svg>
