<?xml version="1.0" encoding="UTF-8"?>
<svg width="33px" height="27px" viewBox="0 0 33 27" version="1.1" xmlns="http://www.w3.org/2000/svg" xmlns:xlink="http://www.w3.org/1999/xlink">
    <!-- Generator: Sketch 52.1 (67048) - http://www.bohemiancoding.com/sketch -->
    <title>Shape</title>
    <desc>Created with Sketch.</desc>
    <g id="IOS-(light-design)" stroke="none" stroke-width="1" fill="none" fill-rule="evenodd">
        <g id="when-click-on-saved-card-after-adding-the-visa-card-details" transform="translate(-158.000000, -227.000000)" fill="#006BB1">
            <polygon id="Shape" points="188.930267 234.663182 189.665501 235.75787 190.036063 236.853653 190.036063 237.581135 189.665501 239.041206 188.930267 240.135894 188.192088 240.135894 188.561178 239.041206 189.296412 237.581135 189.296412 236.487906 188.930267 236.122888 188.561178 235.75787 188.930267 240.865929 189.665501 244.148171 190.4 246.702565 190.036063 248.162635 188.930267 252.17637 188.930267 252.542117 188.561178 253.270694 188.930267 253.635712 188.561178 254 188.192088 254 186.719779 254 186.351426 254 185.984177 254 186.351426 253.635712 187.45575 252.905676 187.824471 252.17637 188.930267 248.528382 187.086661 244.878571 187.086661 246.702565 185.984177 248.89267 185.247838 251.082776 184.878749 252.542117 184.511132 253.270694 184.511132 253.635712 184.511132 254 184.142042 254 182.302484 254 181.933395 254 181.933395 253.635712 182.302484 253.270694 183.037718 252.905676 183.406808 252.542117 185.247838 248.162635 185.247838 247.4326 184.142042 243.054941 183.406808 240.865929 183.037718 239.77197 182.302484 238.675459 181.565777 239.041206 180.092364 240.135894 177.516467 240.865929 175.673597 241.230218 173.833671 241.230218 173.463477 246.339006 173.09586 248.528382 173.463477 252.17637 173.463477 252.905676 173.463477 253.635712 173.463477 254 173.09586 254 171.25667 254 171.25667 253.635712 171.990064 252.905676 172.359154 252.17637 171.990064 248.528382 171.990064 247.069041 171.990064 245.973988 171.622447 243.785341 170.88758 246.702565 170.88758 247.069041 170.88758 248.528382 170.519227 252.17637 170.519227 252.905676 170.519227 253.635712 170.519227 254 169.783257 254 168.309108 254 167.942226 253.635712 168.309108 253.635712 168.677461 253.270694 169.045814 252.905676 169.415639 252.17637 169.783257 248.162635 169.783257 247.797618 169.783257 246.702565 169.783257 245.243588 170.152346 243.054941 169.783257 240.500912 169.783257 240.135894 169.783257 239.406953 168.677461 239.041206 167.206992 239.041206 166.101196 238.675459 164.9954 238.3119 164.260166 237.216118 163.521987 235.75787 162.787489 233.568129 162.418399 231.743771 162.052254 230.649082 159.473413 229.919047 159.10506 229.919047 158.368353 229.919047 158 229.919047 158 229.190106 158 228.825817 158.368353 228.095053 158.737443 227.731494 159.473413 227.731494 161.314075 227.365018 161.683165 227 162.418399 227 163.153266 227 163.889972 227 164.9954 227 164.9954 227.731494 164.9954 228.4608 165.363017 229.190106 165.732107 230.649082 166.467341 232.837 166.467341 233.568129 167.206992 233.933147 168.309108 233.933147 168.677461 233.568129 169.415639 232.837 170.152346 232.474535 171.990064 231.378753 172.359154 231.014829 173.09586 230.284065 175.305244 228.095053 176.778657 227.365018 177.884085 227 178.618215 227 180.459982 227.365018 182.302484 228.825817 185.984177 232.109517 187.086661 232.837"></polygon>
        </g>
    </g>
</svg>