<?xml version="1.0" encoding="utf-8"?>
<!-- Generator: Adobe Illustrator 22.1.0, SVG Export Plug-In . SVG Version: 6.00 Build 0)  -->
<svg version="1.1" id="Layer_1" xmlns="http://www.w3.org/2000/svg" xmlns:xlink="http://www.w3.org/1999/xlink" x="0px" y="0px"
	 viewBox="0 0 630 300" enable-background="new 0 0 630 300" xml:space="preserve">
<g>
	<path fill="#939598" d="M255.1,69.3h-32.2c-15.3,42.2-40.8,112.3-54.9,150.8c-1.4,3.7-3.1,7.2-5.3,10.6h1.4c0,0,0,0,0,0l20.9,0
		c5.6,0,11.5-3.8,14.5-9c0.5-0.8,0.9-1.7,1.2-2.5l13.4-36.9h0C230.8,136.5,253.4,74.3,255.1,69.3"/>
	<path fill="#EE7623" d="M597.7,150l-13.4,36.9c-2.3,6.4-9.2,11.5-15.6,11.5l-22.3,0c2.3-3.7,4.2-7.5,5.7-11.5l13.5-36.9h-32.3
		l-13.4,36.9c-2.3,6.4-9.3,11.5-15.6,11.5l-10.8,0h-11.6c2.3-3.7,4.2-7.5,5.7-11.5l13.5-36.9h-32.3l-13.4,36.9
		c-2.3,6.4-9.3,11.5-15.6,11.5l-103.2,0c2.3-3.7,4.3-7.3,5.8-11.3l3.4-9.5c8.8-24.2-3.7-43.8-27.9-43.8h-36.8l-11.7,32.3h36.8
		c6.4,0,9.6,5.2,7.3,11.5l-3.6,9.5c-2.3,6.4-9.2,11.3-15.5,11.3H241l-11.7,32.3h327.8c24.2,0,50.6-19.4,59.4-43.6L630,150H597.7z"/>
	<path fill="#EE7623" d="M85.6,230.7H0.3L12,198.4h85.3c6.4,0,13.4-5.2,15.7-11.5l3.3-9.2c2.3-6.4-1-11.5-7.3-11.5h-53l11.7-32.3h53
		c24.2,0,36.7,19.7,27.9,43.8l-3.3,9.2C136.6,211.1,109.8,230.7,85.6,230.7"/>
</g>
</svg>
