<?xml version="1.0" encoding="utf-8"?>
<!-- Generator: Adobe Illustrator 22.1.0, SVG Export Plug-In . SVG Version: 6.00 Build 0)  -->
<svg version="1.1" id="Layer_1" xmlns="http://www.w3.org/2000/svg" xmlns:xlink="http://www.w3.org/1999/xlink" x="0px" y="0px"
	 viewBox="0 0 527.4 300" enable-background="new 0 0 527.4 300" xml:space="preserve">
<path fill-rule="evenodd" clip-rule="evenodd" fill="#1A1F71" d="M440.786,174.235l0.186-0.66l0.22-0.431l0.22-0.643l0.203-0.62
	l0.22-0.456l0.228-0.619l0.212-0.652l0.203-0.636l0.228-0.415l0.211-0.636l0.188-0.652l0.22-0.448l0.219-0.619l0.229-0.627
	l0.203-0.653l0.228-0.44l0.196-0.619l0.196-0.659l0.236-0.408l0.212-0.652l0.229-0.635l0.212-0.652l0.186-0.415l0.22-0.652
	l0.22-0.619l0.227-0.424l0.212-0.659l0.204-0.652l0.187-0.627l0.22-0.424l0.22-0.627l0.22-0.643l0.203-0.441l0.236-0.643
	l0.212-0.636l0.212-0.619l0.228-0.448l0.187-0.636l0.228-0.643l0.212-0.432l0.203-0.651l0.204-0.619l0.237-0.644l0.203-0.415
	l0.22-0.651l0.22-0.644l0.187-0.635l0.22-0.424l0.195-0.652l0.228-0.636l0.203-0.415l0.237-0.644l0.22-0.627l0.179-0.651
	l0.196-0.415l0.252-0.652l0.204-0.619l0.228-0.449l0.212-0.651l0.212-0.635l0.195-0.628l0.204-0.423l0.236-0.653l0.188-0.652
	l0.227-0.407l0.22-0.652l0.22-0.636l0.204-0.636l0.203-0.435l0.221-0.64l0.22-0.627l0.196-0.656l0.244-0.431l0.196-0.62l0.212-0.647
	l0.227-0.439l0.212-0.64l0.188-0.623l0.22-0.652l0.236-0.619l0.212-0.648l0.212-0.44l0.204-0.647l0.203-0.615l0.228-0.643
	l0.188-0.444l0.253-0.623l0.22-0.648l0.219-0.656l0.204-0.427l0.196-0.619l0.212-0.64l0.186-0.643l0.236-0.428l0.22-0.652
	l0.22-0.627l0.219-0.415l0.188-0.652l0.227-0.644l0.205-0.635l0.195-0.643l0.22-0.428l0.211-0.635l0.253-0.64v1.275l0.187,0.856
	l0.236,1.062l0.179,1.084l0.213,1.042l0.236,1.08l0.22,1.071l0.212,1.067l0.203,1.068l0.212,1.05l0.219,1.088l0.187,1.051
	l0.22,1.075l0.22,1.051l0.22,1.067l0.236,0.859l0.188,1.079l0.203,1.055l0.204,1.067l0.26,1.075l0.204,1.051l0.179,0.872
	l0.253,1.058l0.187,1.076l0.212,1.059l0.228,1.067l0.212,0.856l0.204,1.067l0.203,1.066l0.253,1.052l0.187,1.092l0.203,1.042
	l0.22,0.872l0.22,1.05l0.203,1.092l0.237,1.043l0.204,1.076l0.204,1.083l0.227,0.814l0.212,1.083l0.188,1.084l0.219,1.051
	l0.212,0.88l0.196,1.059l0.26,1.043l0.212,1.067l0.212,1.068l0.203,1.091l0.22,1.051l0.195,0.855l0.203,1.042l0.237,1.077
	l0.211,1.075l0.22,1.092l0.196,1.051l0.211,0.871l0.229,1.035l0.195,1.059l0.22,1.082h-34.802L440.786,174.235L440.786,174.235z
	 M454.219,68.614l-1.286,0.216l-1.051,0.208l-0.863,0.203l-0.627,0.2l-0.66,0.22l-0.619,0.223l-0.643,0.216l-0.424,0.212
	l-0.439,0.208l-0.441,0.22l-0.407,0.208l-0.416,0.228l-0.448,0.228l-0.22,0.196l-0.398,0.208l-0.229,0.208l-0.448,0.216
	l-0.196,0.224l-0.196,0.204l-0.431,0.215l-0.229,0.22l-0.219,0.196l-0.22,0.22l-0.188,0.228l-0.211,0.199l-0.228,0.216l-0.203,0.196
	l-0.212,0.22l-0.228,0.224l-0.22,0.22l-0.203,0.199l-0.22,0.216l-0.22,0.216l-0.186,0.423l-0.229,0.22l-0.211,0.225l-0.188,0.403
	l-0.229,0.232l-0.195,0.408l-0.237,0.224l-0.187,0.419l-0.237,0.224l-0.244,0.424l-0.212,0.419l-0.212,0.441l-0.187,0.415
	L438,80.557l-0.212,0.436l-0.228,0.415l-0.203,0.431l-0.196,0.636l-0.245,0.407l-0.186,0.656l-0.204,0.44l-0.237,0.398l-0.186,0.653
	l-0.237,0.436l-0.22,0.436l-0.22,0.61l-0.203,0.436l-0.204,0.652l-0.244,0.424l-0.188,0.427l-0.219,0.631l-0.18,0.44l-0.236,0.64
	l-0.228,0.407l-0.188,0.436l-0.252,0.639l-0.187,0.431l-0.187,0.632l-0.228,0.439l-0.228,0.432l-0.22,0.627l-0.22,0.423l-0.22,0.627
	l-0.204,0.453l-0.186,0.403l-0.237,0.656l-0.203,0.415l-0.22,0.419l-0.204,0.651l-0.22,0.42l-0.212,0.644l-0.195,0.436l-0.22,0.42
	l-0.212,0.652l-0.22,0.424l-0.212,0.643l-0.212,0.415l-0.253,0.436l-0.163,0.627l-0.244,0.428l-0.203,0.647l-0.196,0.415
	l-0.228,0.444l-0.212,0.64l-0.212,0.42l-0.171,0.439l-0.253,0.619l-0.22,0.436l-0.211,0.643l-0.229,0.415l-0.187,0.428l-0.252,0.648
	l-0.22,0.419l-0.18,0.636l-0.203,0.443l-0.236,0.424l-0.203,0.623l-0.18,0.453l-0.244,0.631l-0.228,0.424l-0.196,0.428l-0.212,0.631
	l-0.212,0.44l-0.204,0.424l-0.219,0.635l-0.237,0.424l-0.22,0.652l-0.187,0.432l-0.253,0.407l-0.171,0.652l-0.203,0.424l-0.228,0.64
	l-0.196,0.431l-0.245,0.428l-0.179,0.652l-0.211,0.415l-0.245,0.652l-0.196,0.415l-0.253,0.427l-0.179,0.623l-0.228,0.444
	l-0.212,0.643l-0.212,0.411l-0.219,0.42l-0.188,0.651l-0.212,0.416l-0.212,0.453l-0.219,0.619l-0.22,0.436l-0.221,0.643
	l-0.203,0.412l-0.22,0.424l-0.22,0.651l-0.22,0.436l-0.187,0.62l-0.22,0.431l-0.229,0.44l-0.195,0.636l-0.22,0.415l-0.22,0.652
	l-0.219,0.436l-0.196,0.415l-0.196,0.636l-0.244,0.432l-0.22,0.424l-0.229,0.627l-0.179,0.44l-0.212,0.636l-0.211,0.432l-0.22,0.424
	l-0.22,0.635l-0.228,0.431l-0.228,0.669l-0.187,0.398l-0.203,0.415l-0.212,0.669l-0.212,0.398l-0.236,0.652l-0.205,0.431
	l-0.227,0.424l-0.163,0.636l-0.253,0.424l-0.204,0.448l-0.211,0.61l-0.229,0.432l-0.163,0.66l-0.236,0.415l-0.236,0.651l-0.22,0.415
	l-0.212,0.44l-0.212,0.627l-0.186,0.432l-0.197,0.415l-0.236,0.652l-0.245,0.424l-0.195,0.636l-0.212,0.448l-0.187,0.415
	l-0.228,0.627l-0.229,0.44l-0.212,0.619l-0.236,0.457l-0.154,0.424l-0.253,0.627l-0.212,0.424l-0.188,0.627l-0.244,0.44
	l-0.196,0.423l-0.195,0.643l-0.261,0.432l-0.212,0.415l-0.22,0.652l-0.196,0.415l-0.212,0.652l-0.18,0.415l-0.211,0.439
	l-0.253,0.652l-0.187,0.399l-0.269,0.652l-0.163,0.415l-0.212,0.44l-0.221,0.653l-0.195,0.39l-0.229,0.449l-0.236,0.627
	l-0.203,0.423l-0.212,0.652l-0.204,0.44l-0.203,0.415l-0.236,0.636l-0.212,0.415l-0.171,0.669l-0.244,0.439l-0.22,0.399
	l-0.203,0.636l-0.22,0.431l-0.212,0.628l-0.203,0.464l-0.245,0.399l-0.187,0.66l-0.236,0.424l-0.204,0.61l-0.236,0.448l-0.171,0.415
	l-0.204,0.619l-0.229,0.473l-0.228,0.407l-0.196,0.636l-0.204,0.448l-0.252,0.619l-0.196,0.432l-0.204,0.431l-0.212,0.627
	l-0.203,0.44l-0.236,0.635l-0.203,0.432l-0.229,0.415l-0.203,0.643l-0.195,0.432l-0.237,0.636l-0.187,0.407l-0.253,0.448
	l-0.22,0.635l-0.187,0.416l-0.22,0.651l-0.171,0.44l-0.227,0.415l-0.245,0.627l-0.228,0.441l-0.22,0.439l-0.163,0.628l-0.252,0.431
	l-0.188,0.643l-0.212,0.432l-0.227,0.398l-0.188,0.652l-0.22,0.432l-0.212,0.619l-0.219,0.473l-0.197,0.399l-0.227,0.636
	l-0.245,0.448l-0.195,0.619l-0.22,0.44l-0.22,0.416l-0.204,0.652l-0.22,0.424l-0.187,0.423l-0.22,0.643l-0.22,0.408l-0.203,0.636
	l-0.22,0.456l-0.22,0.415l-0.22,0.643l-0.187,0.415l-0.203,0.66l-0.27,0.415l-0.186,0.408l-0.212,0.652l-0.197,0.432l-0.236,0.448
	l-0.212,0.603l-0.22,0.448l-0.22,0.619l-0.179,0.44l-0.212,0.448l-0.228,0.636l-0.212,0.424l-0.22,0.619l-0.22,0.431l-0.204,0.441
	l-0.212,0.619l-0.195,0.431l-0.252,0.636l-0.22,0.448l-0.22,0.415l-0.171,0.644l-0.22,0.448l-0.204,0.61l-0.244,0.441l-0.22,0.407
	l-0.203,0.652l-0.204,0.424l-0.187,0.66l-0.228,0.415l-0.228,0.424l-0.203,0.636l-0.237,0.415l-0.203,0.423l-0.195,0.627
	l-0.229,0.456l-0.186,0.653l-0.261,0.415l-0.18,0.423l-0.204,0.636l-0.186,0.432l-0.253,0.667l-0.22,0.399l-0.196,0.432
	l-0.227,0.643l-0.196,0.424l-0.236,0.619l-0.195,0.44l-0.229,0.448l-0.212,0.611l-0.212,0.456l-0.212,0.407l-0.228,0.636
	l-0.187,0.424l-0.22,0.643l-0.203,0.448l-0.204,0.424l-0.236,0.619l-0.22,0.424v0.66h45.018l0.212-0.212l0.212-0.642l0.228-0.628
	l0.179-0.643l0.253-0.448l0.196-0.643l0.245-0.636l0.211-0.636l0.179-0.651l0.245-0.391l0.196-0.668l0.228-0.627l0.203-0.626
	l0.171-0.653l0.253-0.431l0.187-0.62l0.22-0.667l0.237-0.653l0.219-0.415l0.204-0.643l0.212-0.636l0.212-0.668l0.196-0.391
	l0.228-0.659l0.244-0.621l0.18-0.635l0.203-0.635l0.236-0.465l0.203-0.619l0.18-0.652l0.22-0.627l0.252-0.424l0.187-0.636
	l0.229-0.643l0.211-0.636l0.22-0.448l0.253-0.636l0.171-0.635l0.212-0.627l0.212-0.441l0.228-0.627l0.196-0.635v-0.448l54.41,0.22
	l0.237,1.059l0.179,0.871l0.212,1.051l0.236,1.067l0.22,0.864l0.195,1.066l0.229,1.06l0.203,0.855l0.203,1.084l0.203,1.042
	l0.203,1.067l0.204,1.092l0.236,0.848l0.22,1.067l0.204,1.034l0.236,1.092l0.22,0.855l0.229,1.255l0.179,0.896l0.203,1.042
	l0.212,1.059l0.228,1.076l0.212,0.871l0.188,1.043l0.236,0.439h39.69v-1.482l-0.22-1.092l-0.212-1.067l-0.211-1.042l-0.18-0.847
	l-0.236-1.108l-0.228-1.042l-0.203-0.855l-0.236-1.092l-0.212-1.034l-0.228-1.067l-0.154-1.109l-0.245-0.831l-0.228-1.067
	l-0.212-1.042l-0.22-1.084l-0.171-1.059l-0.22-0.856l-0.253-1.066l-0.195-1.084l-0.212-1.067l-0.203-1.059l-0.188-0.839l-0.22-1.082
	l-0.236-1.076l-0.245-1.067l-0.178-0.831l-0.253-1.075l-0.18-1.051l-0.22-1.076l-0.203-1.058l-0.203-0.888l-0.236-1.05l-0.195-1.051
	l-0.229-1.068l-0.195-1.058l-0.212-0.871l-0.22-1.084l-0.22-1.051l-0.219-0.847l-0.188-1.067l-0.236-1.059l-0.22-1.092l-0.196-1.042
	l-0.195-1.091l-0.237-0.824l-0.203-1.082l-0.237-1.068l-0.171-1.059l-0.261-1.067l-0.163-0.871l-0.236-1.059l-0.236-1.067
	l-0.187-0.831l-0.228-1.1l-0.212-1.067l-0.236-1.034l-0.197-1.06l-0.22-0.872l-0.219-1.075l-0.203-1.05l-0.188-1.084l-0.22-1.051
	l-0.22-0.88l-0.22-1.051l-0.22-1.05l-0.203-1.092l-0.22-1.067l-0.212-0.839l-0.212-1.066l-0.188-1.068l-0.252-1.067l-0.22-0.855
	l-0.187-1.083l-0.212-1.051l-0.228-1.051l-0.212-1.075l-0.203-0.864l-0.253-1.066l-0.163-1.059l-0.229-1.067l-0.236-1.059
	l-0.188-0.855l-0.219-1.066l-0.197-1.093l-0.227-0.847l-0.188-1.051l-0.252-1.075l-0.212-1.051l-0.196-1.084l-0.22-0.848
	l-0.229-1.075l-0.195-1.067l-0.203-1.075l-0.203-1.051l-0.253-0.864l-0.17-1.054l-0.27-1.067l-0.179-1.075l-0.212-1.051
	l-0.236-0.867l-0.18-1.055l-0.22-1.079l-0.22-1.071l-0.236-0.847l-0.187-1.051l-0.22-1.088l-0.203-1.05l-0.196-1.068l-0.228-0.855
	l-0.236-1.071l-0.212-1.064l-0.212-1.059l-0.188-1.084l-0.203-0.847l-0.227-1.075l-0.229-1.059l-0.203-0.839l-0.22-1.088
	l-0.228-1.071l-0.179-1.055l-0.228-1.075l-0.22-1.059l-0.22-0.856l-0.219-1.058l-0.197-1.084l-0.212-1.063l-0.211-1.055
	l-0.228-0.851l-0.22-1.067l-0.187-1.071l-0.236-0.855l-0.204-1.079l-0.196-1.051l-0.227-1.06l-0.22-1.08l-0.22-0.867l-0.187-1.054
	l-0.236-1.064l-0.22-1.076l-0.187-1.047l-0.228-0.868l-0.212-1.054l-0.203-1.088l-0.196-1.047l-0.236-1.088l-0.22-1.05l-0.178-0.851
	l-0.245-1.067l-0.203-1.051l-0.228-0.876l-0.212-1.059l-0.187-1.063l-0.27-1.071l-0.187-1.075l-0.212-0.863l-0.229-1.059
	l-0.171-1.059l-0.227-1.055l-0.204-1.076l-0.212-0.859l-0.204-0.859h-36.708L454.219,68.614z"/>
<polygon fill-rule="evenodd" clip-rule="evenodd" fill="#1A1F71" points="335.582,65.612 333.275,65.816 331.344,66.04 
	329.634,66.265 328.347,66.468 327.076,66.692 325.764,66.913 324.714,67.091 323.629,67.311 322.595,67.54 321.723,67.756 
	320.673,67.964 319.825,68.183 318.962,68.383 318.335,68.614 317.463,68.831 316.6,69.038 315.98,69.242 315.353,69.442 
	314.677,69.662 314.058,69.885 313.186,70.101 312.575,70.313 312.152,70.521 311.475,70.741 310.84,70.949 310.424,71.177 
	309.781,71.405 309.154,71.601 308.697,71.808 308.07,72.016 307.638,72.232 307.215,72.456 306.587,72.66 306.163,72.875 
	305.732,73.095 305.284,73.291 304.877,73.511 304.444,73.739 303.81,73.938 303.394,74.154 302.962,74.35 302.75,74.57 
	302.326,74.794 301.886,75.014 301.463,75.213 301.015,75.429 300.6,75.646 300.184,75.861 299.956,76.069 299.54,76.289 
	299.092,76.513 298.888,76.696 298.458,76.916 298.049,77.148 297.83,77.36 297.39,77.556 296.982,77.78 296.762,77.999 
	296.543,78.199 296.135,78.423 295.907,78.651 295.467,78.847 295.255,79.055 294.848,79.266 294.66,79.482 294.213,79.706 
	294.009,79.914 293.78,80.122 293.341,80.358 293.179,80.557 292.925,80.753 292.485,80.994 292.274,81.189 292.079,81.409 
	291.858,81.625 291.435,81.841 291.19,82.056 291.027,82.272 290.791,82.476 290.588,82.692 290.131,82.883 289.944,83.116 
	289.732,83.327 289.52,83.539 289.317,83.75 289.088,83.979 288.876,84.163 288.648,84.377 288.461,84.594 288.242,84.827 
	287.818,85.03 287.606,85.254 287.361,85.466 287.166,85.661 286.955,85.902 286.726,86.093 286.531,86.513 286.31,86.737 
	286.074,86.948 285.895,87.16 285.683,87.384 285.463,87.6 285.243,87.8 285.023,88.024 284.837,88.244 284.599,88.451 
	284.387,88.655 284.192,89.083 283.972,89.303 283.76,89.523 283.524,89.739 283.321,90.162 283.101,90.362 282.89,90.569 
	282.693,90.79 282.449,91.222 282.286,91.43 282.057,91.645 281.83,92.077 281.642,92.272 281.39,92.497 281.219,92.932 
	280.975,93.148 280.763,93.58 280.559,93.763 280.322,94.207 280.11,94.411 279.883,94.855 279.72,95.258 279.484,95.482 
	279.264,95.915 279.06,96.342 278.824,96.77 278.652,96.989 278.433,97.421 278.18,97.821 278.009,98.256 277.781,98.675 
	277.553,99.112 277.349,99.543 277.146,99.958 276.95,100.399 276.722,101.034 276.511,101.454 276.265,101.894 276.07,102.52 
	275.859,102.948 275.647,103.596 275.452,104.231 275.24,104.863 275.028,105.515 274.799,106.154 274.587,106.805 274.375,107.645 
	274.14,108.504 273.952,109.347 273.749,110.414 273.512,111.494 273.276,112.769 273.073,114.264 272.878,116.402 272.878,123.873 
	273.073,125.778 273.276,127.07 273.512,128.121 273.749,128.989 273.952,129.828 274.14,130.691 274.375,131.339 274.587,131.958 
	274.799,132.606 275.028,133.249 275.24,133.673 275.452,134.313 275.647,134.748 275.859,135.384 276.07,135.799 276.265,136.247 
	276.511,136.671 276.722,137.078 276.95,137.502 277.146,137.942 277.349,138.382 277.553,138.577 277.781,139.01 278.009,139.434 
	278.18,139.645 278.433,140.068 278.652,140.5 278.824,140.719 279.06,141.169 279.264,141.364 279.484,141.787 279.72,141.982 
	279.883,142.211 280.11,142.651 280.322,142.854 280.559,143.049 280.763,143.505 280.975,143.702 281.219,143.921 281.39,144.337 
	281.642,144.557 281.83,144.777 282.057,144.973 282.286,145.192 282.449,145.616 282.693,145.828 282.89,146.064 283.101,146.276 
	283.321,146.48 283.524,146.675 283.76,146.904 283.972,147.107 284.192,147.326 284.387,147.538 284.599,147.767 284.837,147.979 
	285.023,148.183 285.243,148.41 285.463,148.622 285.683,148.834 285.895,149.029 286.074,149.249 286.31,149.469 286.531,149.689 
	286.726,149.893 286.955,150.121 287.166,150.316 287.361,150.513 287.606,150.748 287.818,150.976 288.242,151.164 
	288.461,151.384 288.648,151.596 288.876,151.815 289.088,152.019 289.317,152.239 289.732,152.451 289.944,152.663 
	290.131,152.875 290.4,153.087 290.791,153.323 291.027,153.526 291.19,153.738 291.435,153.941 291.858,154.137 292.079,154.365 
	292.274,154.577 292.673,154.805 292.925,155.008 293.179,155.22 293.577,155.424 293.78,155.661 294.213,155.88 294.408,156.068 
	294.848,156.305 295.068,156.492 295.255,156.711 295.679,156.932 295.907,157.144 296.339,157.355 296.543,157.576 
	296.982,157.787 297.39,157.983 297.642,158.235 298.049,158.422 298.27,158.634 298.685,158.845 299.092,159.066 299.337,159.294 
	299.752,159.489 299.956,159.718 300.411,159.921 300.82,160.116 301.259,160.337 301.463,160.557 301.886,160.769 302.326,160.988 
	302.75,161.209 302.962,161.404 303.394,161.624 303.81,161.819 304.233,162.056 304.649,162.251 305.064,162.472 305.284,162.691 
	305.732,162.911 306.163,163.123 306.587,163.343 306.995,163.563 307.467,163.751 307.858,163.962 308.273,164.181 308.697,164.41 
	309.154,164.614 309.593,164.834 310.001,165.029 310.424,165.249 310.84,165.469 311.272,165.673 311.696,165.901 312.152,166.122 
	312.575,166.308 312.965,166.511 313.414,166.749 313.855,166.961 314.27,167.172 314.677,167.367 315.117,167.588 315.548,167.815 
	315.98,168.011 316.191,168.223 316.6,168.467 317.039,168.662 317.463,168.874 317.903,169.103 318.335,169.298 318.522,169.518 
	318.962,169.754 319.386,169.933 319.825,170.154 320.021,170.373 320.468,170.569 320.876,170.805 321.096,171 321.52,171.238 
	321.943,171.424 322.147,171.677 322.595,171.88 322.791,172.076 323.19,172.288 323.467,172.5 323.841,172.712 324.094,172.931 
	324.485,173.143 324.714,173.363 324.966,173.575 325.365,173.771 325.576,173.982 325.764,174.235 325.959,174.431 
	326.409,174.634 326.627,174.854 326.848,175.065 327.076,175.295 327.263,175.513 327.491,175.718 327.72,175.93 328.159,176.117 
	328.347,176.328 328.534,176.777 328.754,176.98 328.99,177.192 329.202,177.396 329.406,177.607 329.634,177.811 329.821,178.284 
	330.042,178.496 330.269,178.691 330.481,179.123 330.701,179.555 330.904,179.775 331.108,180.173 331.344,180.826 331.54,181.257 
	331.777,181.885 331.955,182.756 332.176,184.019 332.176,186.601 331.955,188.076 331.777,188.931 331.54,189.558 331.344,189.999 
	331.108,190.65 330.904,191.066 330.701,191.497 330.481,191.709 330.269,192.141 330.042,192.344 329.821,192.776 329.634,192.971 
	329.406,193.2 329.202,193.623 328.99,193.835 328.754,194.055 328.534,194.276 328.347,194.455 328.159,194.674 327.906,194.903 
	327.72,195.147 327.263,195.342 327.076,195.547 326.848,195.758 326.627,195.978 326.197,196.182 325.959,196.394 325.576,196.63 
	325.169,196.809 324.966,197.021 324.485,197.248 324.094,197.477 323.629,197.688 323.467,197.884 322.791,198.105 322.35,198.324 
	321.943,198.536 321.52,198.756 320.876,198.976 320.249,199.18 319.581,199.384 318.962,199.603 318.335,199.807 317.463,200.035 
	316.6,200.246 315.752,200.442 314.465,200.654 313.186,200.858 311.475,201.087 308.485,201.29 304.029,201.29 298.888,201.087 
	295.907,200.858 294.009,200.654 292.079,200.442 290.588,200.246 289.317,200.035 288.242,199.807 287.166,199.603 
	286.074,199.384 285.243,199.18 284.192,198.976 283.524,198.756 282.693,198.536 281.83,198.324 281.219,198.105 280.559,197.884 
	279.72,197.688 279.06,197.477 278.433,197.248 277.781,197.021 277.146,196.809 276.722,196.63 276.07,196.394 275.452,196.182 
	274.799,195.978 274.375,195.758 273.749,195.547 273.276,195.342 272.666,195.147 272.005,194.903 271.582,194.674 
	271.166,194.455 270.522,194.276 270.099,194.055 269.439,193.835 269.031,193.623 268.607,193.404 267.965,193.2 267.541,192.971 
	267.133,192.776 266.693,192.573 266.287,192.344 265.643,192.141 265.195,191.937 264.755,191.709 264.331,191.497 
	263.932,191.269 263.492,191.066 263.061,190.87 262.669,190.65 262.229,190.438 261.757,190.211 261.137,190.211 260.918,190.87 
	260.714,192.141 260.502,193.404 260.291,194.674 260.087,196.182 259.858,197.477 259.646,198.756 259.443,200.035 259.216,201.55 
	259.036,202.804 258.8,204.076 258.58,205.355 258.344,206.633 258.14,208.124 257.953,209.428 257.749,210.69 257.529,211.961 
	257.309,213.249 257.081,214.536 256.853,216.035 256.648,217.314 256.462,218.593 256.25,219.888 256.022,221.118 255.817,222.422 
	255.558,223.921 255.395,225.199 255.166,226.504 255.166,227.53 255.817,227.758 256.25,227.994 256.648,228.206 257.309,228.426 
	257.749,228.629 258.344,228.817 258.8,229.044 259.443,229.273 260.087,229.468 260.714,229.68 261.137,229.892 261.977,230.104 
	262.669,230.316 263.248,230.528 263.932,230.739 264.551,230.935 265.39,231.162 266.059,231.383 266.881,231.603 267.744,231.831 
	268.607,232.051 269.439,232.255 270.303,232.474 271.166,232.686 272.242,232.874 273.073,233.103 274.14,233.297 275.24,233.518 
	276.265,233.745 277.349,233.957 278.652,234.169 279.883,234.357 281.39,234.617 282.693,234.805 284.192,235.016 285.895,235.236 
	287.818,235.424 289.732,235.651 292.274,235.863 295.467,236.1 311.272,236.1 314.058,235.863 316.363,235.651 318.335,235.424 
	319.825,235.236 321.299,235.016 322.595,234.805 323.629,234.617 324.966,234.357 325.959,234.169 327.076,233.957 
	327.906,233.745 328.99,233.518 329.821,233.297 330.701,233.103 331.54,232.874 332.395,232.686 333.023,232.474 333.911,232.255 
	334.538,232.051 335.149,231.831 335.793,231.603 336.453,231.383 337.064,231.162 337.732,230.935 338.359,230.739 
	338.987,230.528 339.459,230.316 340.094,230.104 340.697,229.892 341.161,229.68 341.78,229.468 342.188,229.273 342.636,229.044 
	343.263,228.817 343.703,228.629 344.142,228.426 344.566,228.206 345.193,227.994 345.633,227.758 346.041,227.53 346.449,227.318 
	346.905,227.13 347.361,226.919 347.768,226.699 348.159,226.504 348.608,226.275 348.843,226.055 349.267,225.851 349.674,225.632 
	350.098,225.42 350.301,225.199 350.758,224.996 351.165,224.8 351.573,224.564 351.777,224.328 352.249,224.133 352.461,223.921 
	352.9,223.701 353.08,223.48 353.544,223.294 353.951,223.065 354.147,222.837 354.359,222.642 354.783,222.422 355.002,222.227 
	355.442,222.006 355.654,221.786 355.866,221.574 356.281,221.379 356.493,221.118 356.933,220.955 357.136,220.727 
	357.341,220.491 357.577,220.288 357.984,220.068 358.196,219.888 358.448,219.653 358.66,219.447 359.051,219.22 359.288,219.017 
	359.483,218.813 359.703,218.593 359.923,218.389 360.159,218.178 360.33,217.933 360.786,217.713 360.957,217.518 361.21,217.314 
	361.389,217.094 361.625,216.89 361.846,216.678 362.04,216.442 362.293,216.238 362.473,216.035 362.676,215.815 362.897,215.594 
	363.092,215.391 363.32,215.179 363.556,214.984 363.793,214.755 363.963,214.536 364.167,214.316 364.395,213.892 364.607,213.696 
	364.835,213.477 365.03,213.249 365.268,213.028 365.463,212.833 365.666,212.613 365.902,212.182 366.098,211.961 366.31,211.758 
	366.538,211.546 366.758,211.131 366.969,210.902 367.174,210.69 367.401,210.471 367.589,210.063 367.801,209.852 368.037,209.428 
	368.24,209.2 368.443,208.98 368.664,208.565 368.867,208.345 369.072,207.905 369.291,207.709 369.503,207.285 369.731,207.073 
	369.943,206.633 370.138,206.235 370.391,206.006 370.611,205.575 370.807,205.159 371.027,204.703 371.206,204.491 371.45,204.076 
	371.678,203.661 371.866,203.22 372.11,202.804 372.297,202.389 372.501,201.941 372.697,201.55 372.941,200.858 373.161,200.442 
	373.365,200.035 373.568,199.384 373.78,198.976 373.992,198.324 374.212,197.884 374.448,197.248 374.652,196.63 374.856,195.978 
	375.075,195.342 375.263,194.674 375.491,193.835 375.703,192.971 375.914,192.141 376.126,191.269 376.355,190.211 376.55,189.151 
	376.786,187.864 376.982,186.374 377.209,184.45 377.405,180.394 377.405,178.08 377.209,174.634 376.982,172.931 376.786,171.677 
	376.55,170.569 376.355,169.754 376.126,168.874 375.914,168.011 375.703,167.367 375.491,166.749 375.263,166.122 375.075,165.469 
	374.856,164.834 374.652,164.41 374.448,163.751 374.212,163.343 373.992,162.911 373.78,162.472 373.568,162.056 373.365,161.624 
	373.161,161.209 372.941,160.769 372.697,160.337 372.501,159.921 372.297,159.489 372.11,159.294 371.866,158.845 371.678,158.422 
	371.45,158.235 371.206,157.787 371.027,157.576 370.807,157.144 370.611,156.932 370.391,156.492 370.138,156.305 369.943,156.068 
	369.731,155.661 369.503,155.424 369.291,155.008 369.072,154.805 368.867,154.577 368.664,154.365 368.443,153.941 368.24,153.738 
	368.037,153.526 367.801,153.323 367.589,153.087 367.401,152.875 367.174,152.451 366.969,152.239 366.758,152.019 
	366.538,151.815 366.31,151.596 366.098,151.384 365.902,151.164 365.666,150.976 365.463,150.748 365.268,150.513 365.03,150.316 
	364.835,150.121 364.607,149.893 364.395,149.689 364.167,149.469 363.963,149.249 363.793,149.029 363.556,148.834 363.32,148.622 
	363.092,148.41 362.897,148.183 362.473,147.979 362.293,147.767 362.04,147.538 361.846,147.326 361.625,147.107 361.389,146.904 
	361.21,146.675 360.786,146.48 360.558,146.276 360.33,146.064 360.159,145.828 359.703,145.616 359.483,145.412 359.288,145.192 
	359.051,144.973 358.66,144.777 358.448,144.557 358.196,144.337 357.756,144.133 357.577,143.921 357.136,143.702 356.933,143.505 
	356.721,143.278 356.281,143.049 356.094,142.854 355.654,142.651 355.442,142.439 355.002,142.211 354.783,141.982 
	354.359,141.787 354.147,141.567 353.748,141.364 353.544,141.169 353.08,140.931 352.9,140.719 352.461,140.5 352.249,140.297 
	351.777,140.068 351.385,139.864 351.165,139.645 350.758,139.434 350.301,139.228 350.098,139.01 349.674,138.805 349.267,138.577 
	348.843,138.382 348.404,138.154 348.159,137.942 347.768,137.73 347.361,137.502 346.905,137.29 346.449,137.078 346.269,136.875 
	345.829,136.671 345.397,136.451 344.974,136.247 344.566,136.019 344.142,135.799 343.703,135.587 343.263,135.384 342.84,135.164 
	342.424,134.968 341.992,134.748 341.577,134.533 341.161,134.313 340.697,134.093 340.306,133.881 339.85,133.673 339.459,133.465 
	338.987,133.249 338.587,133.046 338.156,132.83 337.732,132.606 337.3,132.39 336.884,132.178 336.453,131.958 336.233,131.758 
	335.793,131.551 335.385,131.339 334.946,131.111 334.538,130.903 334.098,130.691 333.675,130.472 333.479,130.252 
	333.023,130.077 332.607,129.828 332.176,129.612 331.777,129.416 331.54,129.197 331.108,128.989 330.701,128.773 330.269,128.545 
	330.042,128.337 329.634,128.121 329.202,127.918 328.99,127.719 328.534,127.494 328.159,127.266 327.906,127.07 327.491,126.85 
	327.263,126.63 326.848,126.418 326.409,126.199 326.197,125.983 325.764,125.778 325.576,125.575 325.365,125.367 324.966,125.147 
	324.714,124.924 324.298,124.724 324.094,124.504 323.841,124.28 323.629,124.081 323.19,123.873 323.002,123.657 322.791,123.433 
	322.595,123.23 322.147,123.009 321.943,122.814 321.723,122.574 321.52,122.353 321.299,122.162 321.096,121.926 320.876,121.746 
	320.673,121.523 320.468,121.307 320.249,120.872 320.021,120.666 319.825,120.455 319.581,120.024 319.386,119.812 
	319.166,119.376 318.962,119.172 318.759,118.732 318.522,118.317 318.335,117.902 318.106,117.25 317.903,116.606 317.643,115.327 
	317.643,113.209 317.903,112.121 318.106,111.274 318.335,110.635 318.522,110.22 318.759,109.784 318.962,109.347 319.166,109.157 
	319.386,108.716 319.581,108.296 319.825,108.08 320.021,107.861 320.249,107.645 320.468,107.201 320.673,107.005 320.876,106.805 
	321.096,106.594 321.299,106.366 321.52,106.154 321.943,105.947 322.147,105.722 322.35,105.515 322.595,105.307 323.002,105.079 
	323.19,104.863 323.629,104.68 323.841,104.447 324.298,104.231 324.714,104.019 324.966,103.8 325.365,103.596 325.764,103.372 
	326.197,103.173 326.848,102.948 327.263,102.745 327.72,102.52 328.347,102.309 328.99,102.097 329.634,101.894 330.481,101.661 
	331.108,101.454 332.176,101.25 333.023,101.034 334.334,100.826 336.045,100.607 338.156,100.399 347.93,100.399 350.758,100.607 
	352.664,100.826 354.359,101.034 355.866,101.25 356.933,101.454 357.984,101.661 359.051,101.894 359.923,102.097 360.957,102.309 
	361.846,102.52 362.676,102.745 363.32,102.948 364.167,103.173 364.835,103.372 365.666,103.596 366.31,103.8 366.969,104.019 
	367.589,104.231 368.24,104.447 368.664,104.68 369.291,104.863 369.943,105.079 370.611,105.307 371.027,105.515 371.678,105.722 
	372.11,105.947 372.697,106.154 373.161,106.366 373.568,106.594 373.992,106.805 374.448,107.005 374.856,107.201 375.491,107.424 
	375.914,107.645 376.355,107.861 376.786,108.08 377.209,108.296 377.878,108.296 378.065,107.005 378.268,105.722 378.448,104.447 
	378.709,102.948 378.895,101.661 379.124,100.399 379.319,99.112 379.523,97.821 379.76,96.553 379.963,95.067 380.192,93.763 
	380.419,92.497 380.607,91.222 380.81,89.955 381.014,88.655 381.234,87.16 381.478,85.902 381.682,84.377 381.902,83.116 
	382.073,81.841 382.294,80.557 382.513,79.266 382.766,77.999 382.961,76.513 383.173,75.213 383.377,73.938 383.596,72.66 
	383.596,72.232 383.173,72.016 382.513,71.808 381.902,71.601 381.478,71.405 380.81,71.177 380.192,70.949 379.523,70.741 
	378.895,70.521 378.268,70.313 377.625,70.101 376.982,69.885 376.126,69.662 375.491,69.442 374.856,69.242 373.992,69.038 
	373.161,68.831 372.297,68.614 371.45,68.383 370.611,68.183 369.731,67.964 368.867,67.756 367.801,67.54 366.758,67.311 
	365.666,67.091 364.395,66.913 363.32,66.692 361.846,66.468 360.558,66.265 358.839,66.04 356.933,65.816 354.595,65.612 
	351.573,65.4 338.587,65.4 "/>
<polygon fill-rule="evenodd" clip-rule="evenodd" fill="#1A1F71" points="212.266,68.614 212.047,69.885 211.851,71.177 
	211.655,72.456 211.427,73.739 211.208,75.213 211.019,76.513 210.767,77.78 210.556,79.055 210.368,80.358 210.148,81.625 
	209.945,83.116 209.724,84.377 209.496,85.661 209.318,86.948 209.081,88.451 208.861,89.739 208.642,91.006 208.413,92.272 
	208.226,93.763 208.021,95.067 207.835,96.342 207.598,97.605 207.378,98.9 207.159,100.175 206.922,101.661 206.735,102.948 
	206.531,104.231 206.336,105.515 206.1,106.805 205.871,108.08 205.651,109.572 205.448,110.851 205.261,112.121 205.024,113.4 
	204.829,114.68 204.601,115.971 204.397,117.465 204.185,118.732 203.949,120.024 203.761,121.307 203.549,122.814 203.346,124.081 
	203.118,125.367 202.89,126.63 202.686,128.121 202.466,129.416 202.254,130.691 202.035,131.958 201.823,133.249 201.627,134.533 
	201.423,136.019 201.171,137.29 200.984,138.577 200.781,139.864 200.551,141.169 200.323,142.439 200.136,143.921 199.884,145.192 
	199.679,146.48 199.493,147.767 199.256,149.029 199.052,150.316 198.841,151.815 198.629,153.087 198.41,154.365 198.205,155.661 
	198.009,156.932 197.774,158.422 197.57,159.718 197.342,160.988 197.146,162.472 196.919,163.751 196.715,165.029 196.519,166.308 
	196.267,167.588 196.046,168.874 195.843,170.373 195.64,171.677 195.444,172.931 195.232,174.235 195.028,175.513 194.816,176.777 
	194.572,178.284 194.393,179.555 194.133,180.826 193.944,182.12 193.725,183.392 193.472,184.671 193.293,186.146 193.057,187.424 
	192.869,188.711 192.65,189.999 192.438,191.269 192.235,192.776 191.997,194.055 191.811,195.342 191.599,196.809 191.378,198.105 
	191.167,199.384 190.955,200.654 190.727,201.941 190.5,203.22 190.311,204.703 190.1,206.006 189.864,207.285 189.684,208.565 
	189.432,209.852 189.236,211.131 189.024,212.613 188.804,213.892 188.633,215.179 188.389,216.442 188.202,217.713 
	187.973,219.017 187.761,220.491 187.534,221.786 187.322,223.065 187.102,224.328 186.89,225.632 186.653,227.13 186.45,228.426 
	186.223,229.68 186.051,231.162 185.839,232.474 185.839,233.745 228.714,233.745 228.935,232.874 229.138,231.603 229.358,230.316 
	229.578,229.044 229.765,227.758 229.969,226.504 230.189,224.996 230.401,223.701 230.629,222.422 230.841,221.118 
	231.077,219.888 231.289,218.593 231.492,217.094 231.721,215.815 231.924,214.536 232.144,213.249 232.34,211.961 232.551,210.69 
	232.739,209.2 232.975,207.905 233.195,206.633 233.415,205.355 233.619,204.076 233.822,202.585 234.042,201.29 234.278,200.035 
	234.474,198.536 234.686,197.248 234.873,195.978 235.126,194.674 235.305,193.404 235.557,192.141 235.769,190.65 235.957,189.372 
	236.176,188.076 236.348,186.813 236.576,185.518 236.829,184.238 237.032,182.756 237.269,181.453 237.447,180.173 
	237.659,178.911 237.879,177.607 238.099,176.328 238.36,174.854 238.539,173.575 238.743,172.288 238.93,171 239.133,169.754 
	239.403,168.223 239.581,166.961 239.826,165.673 240.014,164.181 240.217,162.911 240.438,161.624 240.69,160.337 240.885,159.066 
	241.08,157.787 241.292,156.305 241.496,155.008 241.716,153.738 241.969,152.451 242.156,151.164 242.36,149.893 242.547,148.622 
	242.767,147.107 243.02,145.828 243.207,144.557 243.41,143.278 243.631,141.982 243.867,140.719 244.071,139.228 244.299,137.942 
	244.51,136.671 244.73,135.384 244.933,134.093 245.13,132.606 245.342,131.339 245.569,130.077 245.772,128.545 245.984,127.266 
	246.189,125.983 246.433,124.724 246.653,123.433 246.865,121.926 247.077,120.666 247.264,119.376 247.492,118.113 
	247.736,116.817 247.932,115.547 248.136,114.264 248.315,112.769 248.567,111.494 248.755,110.22 248.975,108.92 249.195,107.645 
	249.407,106.366 249.602,104.863 249.822,103.596 250.034,102.309 250.27,101.034 250.498,99.755 250.71,98.256 250.906,96.989 
	251.118,95.71 251.321,94.207 251.541,92.932 251.769,91.645 251.932,90.362 252.168,89.083 252.372,87.6 252.609,86.322 
	252.844,85.03 253.032,83.75 253.252,82.476 253.455,81.189 253.676,79.914 253.871,78.423 254.083,77.148 254.335,75.861 
	254.523,74.57 254.727,73.291 254.954,72.016 255.166,70.521 255.395,69.242 255.395,68.183 212.527,68.183 "/>
<polygon fill-rule="evenodd" clip-rule="evenodd" fill="#1A1F71" points="149.995,68.383 149.774,68.614 149.562,69.242 
	149.343,69.662 149.122,70.313 148.935,70.949 148.69,71.405 148.504,72.016 148.283,72.66 148.047,73.095 147.86,73.739 
	147.631,74.35 147.453,75.014 147.208,75.429 146.988,76.069 146.801,76.696 146.557,77.148 146.377,77.78 146.125,78.423 
	145.93,78.847 145.725,79.482 145.497,80.122 145.318,80.557 145.066,81.189 144.87,81.841 144.666,82.476 144.455,82.883 
	144.227,83.539 144.023,84.163 143.794,84.594 143.575,85.254 143.37,85.902 143.151,86.513 142.931,86.948 142.736,87.6 
	142.524,88.244 142.312,88.655 142.1,89.303 141.88,89.955 141.685,90.362 141.441,91.006 141.252,91.645 141.008,92.077 
	140.797,92.709 140.601,93.36 140.39,93.983 140.202,94.411 139.95,95.067 139.738,95.71 139.517,96.114 139.305,96.77 
	139.119,97.421 138.907,97.821 138.719,98.476 138.467,99.112 138.247,99.755 138.035,100.175 137.808,100.826 137.636,101.454 
	137.384,101.894 137.172,102.52 136.975,103.173 136.731,103.596 136.545,104.231 136.333,104.863 136.145,105.515 135.925,105.947 
	135.689,106.594 135.493,107.201 135.273,107.645 135.054,108.296 134.842,108.92 134.597,109.347 134.401,109.995 134.206,110.635 
	134.003,111.05 133.766,111.701 133.546,112.325 133.358,112.993 133.098,113.4 132.927,114.048 132.698,114.68 132.512,115.107 
	132.308,115.755 132.063,116.402 131.868,117.029 131.624,117.465 131.436,118.113 131.224,118.732 130.996,119.172 
	130.785,119.812 130.581,120.455 130.336,120.872 130.125,121.523 129.929,122.162 129.726,122.574 129.505,123.23 129.302,123.873 
	129.082,124.504 128.862,124.924 128.659,125.575 128.423,126.199 128.211,126.63 127.999,127.266 127.811,127.918 127.591,128.337 
	127.355,128.989 127.159,129.612 126.948,130.077 126.728,130.691 126.516,131.339 126.288,131.958 126.108,132.39 125.864,133.046 
	125.684,133.673 125.433,134.093 125.228,134.748 125.033,135.384 124.805,136.019 124.618,136.451 124.382,137.078 124.186,137.73 
	123.949,138.154 123.722,138.805 123.525,139.434 123.313,139.864 123.127,140.5 122.89,141.169 122.695,141.567 122.459,142.211 
	122.239,142.854 122.043,143.505 121.807,143.921 121.612,144.557 121.4,145.192 121.155,145.616 121,146.276 120.756,146.904 
	120.568,147.326 120.349,147.979 120.129,148.622 119.901,149.029 119.698,149.689 119.51,150.316 119.257,150.976 119.053,151.384 
	118.842,152.019 118.606,152.663 118.426,153.087 118.214,153.738 117.979,154.365 117.774,155.008 117.562,155.424 
	117.343,156.068 117.131,156.711 116.935,157.144 116.716,157.787 116.504,158.422 116.293,158.845 116.048,159.489 
	115.852,160.116 115.64,160.557 115.42,161.209 115.2,161.819 114.98,162.472 114.801,162.911 114.556,163.563 114.369,164.181 
	114.149,164.614 113.937,165.249 113.71,165.901 113.498,166.308 113.302,166.961 113.058,167.588 112.862,168.223 112.634,168.662 
	112.422,169.298 112.234,169.933 112.007,170.373 111.827,171 111.583,171.677 111.363,172.076 111.143,172.712 110.932,173.363 
	110.744,173.982 110.532,174.431 110.304,175.065 110.125,175.718 109.848,176.117 109.66,176.777 109.448,177.396 109.262,177.811 
	109.025,178.496 108.789,179.123 108.601,179.775 108.382,180.173 108.194,179.123 107.95,178.081 107.739,176.98 107.559,175.93 
	107.315,174.854 107.118,173.771 106.866,172.712 106.679,171.677 106.467,170.373 106.214,169.298 106.036,168.223 
	105.815,167.172 105.637,166.122 105.408,165.029 105.164,163.751 104.985,162.691 104.756,161.624 104.544,160.557 
	104.333,159.489 104.121,158.422 103.925,158.235 103.925,157.355 103.681,156.305 103.485,155.22 103.241,154.137 103.038,153.087 
	102.842,152.019 102.631,150.976 102.411,149.689 102.199,148.622 102.003,147.538 101.766,146.48 101.547,145.412 101.351,144.337 
	101.139,143.278 100.928,142.211 100.699,141.169 100.487,140.068 100.275,139.01 100.048,137.942 99.836,136.875 99.624,135.587 
	99.436,134.533 99.217,133.465 99.005,132.39 98.809,131.339 98.566,130.252 98.369,129.197 98.142,128.121 97.913,127.07 
	97.733,125.778 97.489,124.924 97.294,123.873 97.082,122.814 96.837,121.523 96.642,120.455 96.431,119.376 96.21,118.317 
	96.007,117.25 95.812,116.182 95.591,115.107 95.347,114.048 95.159,112.993 94.932,111.701 94.752,110.851 94.508,109.784 
	94.296,108.504 94.092,107.424 93.856,106.366 93.661,105.307 93.465,104.231 93.246,103.173 93.026,102.097 92.805,101.034 
	92.618,99.958 92.374,98.675 92.178,97.821 91.966,96.77 91.714,95.482 91.543,94.63 91.298,93.36 91.111,92.272 90.883,91.222 
	90.662,90.162 90.451,89.083 90.24,88.024 90.035,86.948 89.832,85.902 89.611,84.594 89.392,83.75 89.164,82.476 88.984,81.625 
	88.749,80.994 88.56,80.358 88.316,79.706 88.088,79.055 87.918,78.651 87.697,78.199 87.477,77.78 87.258,77.36 87.046,76.916 
	86.834,76.513 86.606,76.289 86.427,75.861 86.198,75.646 85.986,75.213 85.774,75.014 85.563,74.794 85.335,74.35 85.123,74.154 
	84.911,73.938 84.683,73.739 84.471,73.511 84.292,73.291 84.039,73.095 83.853,72.875 83.641,72.66 83.412,72.456 82.989,72.232 
	82.793,72.016 82.565,71.808 82.118,71.601 81.897,71.405 81.506,71.177 81.066,70.949 80.854,70.741 80.415,70.521 80.007,70.313 
	79.584,70.101 78.932,69.885 78.28,69.662 77.848,69.442 77.221,69.242 76.39,69.038 75.527,68.831 74.468,68.614 72.748,68.383 
	70.639,68.183 0.643,68.183 0.431,68.383 0.228,69.662 0,70.949 0,72.016 0.871,72.232 1.499,72.456 2.354,72.66 3.218,72.875 
	3.837,73.095 4.708,73.291 5.581,73.511 6.199,73.739 6.843,73.938 7.682,74.154 8.334,74.35 8.986,74.57 9.832,74.794 
	10.468,75.014 11.12,75.213 11.739,75.429 12.383,75.646 13.01,75.861 13.662,76.069 14.313,76.289 14.932,76.513 15.593,76.696 
	16.016,76.916 16.643,77.148 17.311,77.36 17.931,77.556 18.582,77.78 18.981,77.999 19.641,78.199 20.293,78.423 20.716,78.651 
	21.352,78.847 21.751,79.055 22.427,79.266 23.022,79.482 23.494,79.706 23.909,79.914 24.545,80.122 25.001,80.358 25.588,80.557 
	26.06,80.753 26.46,80.994 27.111,81.189 27.535,81.409 27.951,81.625 28.587,81.841 29.026,82.056 29.466,82.272 29.906,82.476 
	30.525,82.692 30.949,82.883 31.388,83.116 31.788,83.327 32.219,83.539 32.659,83.75 33.082,83.979 33.491,84.163 34.142,84.377 
	34.582,84.594 34.981,84.827 35.412,85.03 35.869,85.254 36.309,85.466 36.716,85.661 37.108,85.902 37.548,86.093 37.979,86.322 
	38.199,86.513 38.607,86.737 39.03,86.948 39.503,87.16 39.927,87.384 40.334,87.6 40.732,87.8 41.181,88.024 41.385,88.244 
	41.816,88.451 42.256,88.655 42.696,88.875 42.908,89.083 43.315,89.303 43.739,89.523 44.17,89.739 44.407,89.955 44.797,89.955 
	44.797,90.362 45.042,91.222 45.238,91.861 45.45,92.709 45.662,93.58 45.889,94.411 46.101,95.258 46.313,95.915 46.525,96.77 
	46.753,97.604 46.933,98.476 47.159,99.112 47.372,99.958 47.583,100.826 47.804,101.661 48.024,102.52 48.235,103.173 
	48.431,104.019 48.667,104.863 48.846,105.722 49.083,106.594 49.327,107.201 49.515,108.08 49.719,108.92 49.914,109.784 
	50.158,110.414 50.37,111.274 50.549,112.121 50.81,112.993 50.989,113.819 51.233,114.476 51.429,115.327 51.641,116.182 
	51.869,117.029 52.049,117.902 52.293,118.52 52.479,119.376 52.724,120.236 52.944,121.095 53.123,121.746 53.352,122.574 
	53.531,123.433 53.751,124.28 53.979,124.924 54.182,125.778 54.427,126.63 54.623,127.494 54.835,128.337 55.046,128.989 
	55.258,129.828 55.519,130.691 55.698,131.551 55.917,132.39 56.105,133.046 56.317,133.881 56.529,134.748 56.756,135.587 
	56.968,136.247 57.18,137.078 57.409,137.942 57.62,138.805 57.832,139.644 58.061,140.297 58.24,141.169 58.459,141.982 
	58.663,142.854 58.9,143.702 59.095,144.337 59.323,145.192 59.543,146.065 59.739,146.904 59.95,147.538 60.187,148.41 
	60.374,149.249 60.618,150.121 60.814,150.976 61.033,151.596 61.254,152.451 61.449,153.323 61.678,154.137 61.897,155.008 
	62.101,155.661 62.305,156.492 62.524,157.355 62.729,158.235 62.948,159.066 63.169,159.718 63.372,160.557 63.6,161.404 
	63.812,162.056 64.008,162.911 64.252,163.751 64.448,164.614 64.642,165.469 64.838,166.122 65.098,166.961 65.302,167.815 
	65.49,168.662 65.734,169.518 65.929,170.154 66.141,171 66.353,171.88 66.55,172.712 66.818,173.363 67.005,174.235 
	67.217,175.065 67.412,175.93 67.624,176.777 67.877,177.396 68.064,178.284 68.308,179.123 68.488,179.961 68.716,180.826 
	68.912,181.453 69.124,182.325 69.335,183.18 69.547,184.019 69.776,184.883 70.011,185.518 70.199,186.374 70.41,187.22 
	70.639,188.076 70.85,188.711 71.038,189.558 71.257,190.438 71.502,191.269 71.681,192.141 71.909,192.776 72.113,193.623 
	72.333,194.455 72.553,195.342 72.748,196.182 72.993,196.809 73.197,197.688 73.424,198.536 73.637,199.384 73.816,200.035 
	74.044,200.858 74.223,201.746 74.468,202.585 74.695,203.22 74.907,204.076 75.119,204.931 75.315,205.787 75.527,206.633 
	75.722,207.285 75.966,208.124 76.203,208.98 76.39,209.852 76.601,210.471 76.797,211.343 77.042,212.182 77.221,213.028 
	77.449,213.892 77.661,214.536 77.848,215.391 78.092,216.238 78.28,217.094 78.516,217.933 78.737,218.593 78.932,219.447 
	79.176,220.288 79.364,221.118 79.584,222.006 79.811,222.642 80.007,223.48 80.227,224.328 80.415,225.199 80.634,225.851 
	80.854,226.699 81.066,227.53 81.311,228.426 81.506,229.273 81.717,229.892 81.897,230.739 82.118,231.603 82.37,232.474 
	82.565,233.297 82.793,233.745 117.774,233.745 128.211,233.518 128.423,233.297 128.659,232.686 128.862,232.255 129.082,231.603 
	129.302,231.162 129.505,230.739 129.726,230.104 129.929,229.68 130.125,229.044 130.336,228.629 130.581,227.994 130.785,227.53 
	130.996,226.919 131.224,226.504 131.436,226.055 131.624,225.42 131.868,224.996 132.063,224.328 132.308,223.921 132.512,223.294 
	132.698,222.837 132.927,222.227 133.098,221.786 133.358,221.118 133.546,220.727 133.766,220.288 134.003,219.653 134.206,219.22 
	134.401,218.593 134.597,218.178 134.842,217.518 135.054,217.094 135.273,216.442 135.493,216.035 135.689,215.391 
	135.925,214.984 136.145,214.536 136.333,213.892 136.545,213.477 136.731,212.833 136.975,212.393 137.172,211.758 
	137.384,211.343 137.636,210.69 137.808,210.259 138.035,209.632 138.247,209.2 138.467,208.565 138.719,208.124 138.907,207.709 
	139.119,207.073 139.305,206.633 139.517,206.006 139.738,205.575 139.95,204.931 140.202,204.491 140.39,203.88 140.601,203.449 
	140.797,203.008 141.008,202.389 141.252,201.941 141.441,201.29 141.685,200.858 141.88,200.246 142.1,199.807 142.312,199.18 
	142.524,198.756 142.736,198.105 142.931,197.688 143.151,197.248 143.37,196.63 143.575,196.182 143.794,195.547 144.023,195.147 
	144.227,194.455 144.455,194.055 144.666,193.404 144.87,192.971 145.066,192.344 145.318,191.937 145.497,191.269 145.725,190.87 
	145.93,190.438 146.125,189.795 146.377,189.372 146.557,188.711 146.801,188.304 146.988,187.652 147.208,187.22 147.453,186.601 
	147.631,186.146 147.86,185.738 148.047,185.095 148.283,184.671 148.504,184.019 148.69,183.587 148.935,182.959 149.122,182.544 
	149.343,181.885 149.562,181.453 149.774,180.826 149.995,180.394 150.182,179.961 150.418,179.327 150.63,178.911 150.817,178.284 
	151.078,177.811 151.264,177.192 151.502,176.777 151.705,176.117 151.909,175.718 152.128,175.065 152.348,174.634 152.56,173.982 
	152.755,173.575 152.993,173.143 153.163,172.5 153.4,172.076 153.644,171.424 153.832,171 154.043,170.373 154.239,169.933 
	154.467,169.298 154.711,168.874 154.89,168.467 155.111,167.815 155.33,167.367 155.541,166.749 155.73,166.308 155.95,165.673 
	156.186,165.249 156.373,164.614 156.601,164.181 156.804,163.563 157.009,163.123 157.27,162.691 157.44,162.056 157.66,161.624 
	157.88,160.988 158.1,160.557 158.328,159.921 158.524,159.489 158.751,158.845 158.947,158.422 159.167,157.787 159.346,157.355 
	159.591,156.711 159.81,156.305 160.015,155.88 160.242,155.22 160.431,154.805 160.642,154.137 160.853,153.738 161.081,153.087 
	161.302,152.663 161.481,152.019 161.733,151.596 161.954,150.976 162.14,150.513 162.352,150.121 162.548,149.469 162.793,149.029 
	163.005,148.41 163.224,147.979 163.428,147.326 163.648,146.904 163.86,146.276 164.055,145.828 164.299,145.412 164.528,144.777 
	164.714,144.337 164.926,143.702 165.123,143.278 165.359,142.651 165.554,142.211 165.765,141.567 165.986,141.169 166.198,140.5 
	166.426,140.068 166.621,139.644 166.85,139.01 167.061,138.577 167.233,137.942 167.493,137.502 167.689,136.875 167.9,136.451 
	168.145,135.799 168.332,135.384 168.535,134.748 168.731,134.313 168.959,133.673 169.171,133.249 169.407,132.83 169.619,132.178 
	169.815,131.758 170.027,131.111 170.263,130.691 170.459,130.077 170.703,129.612 170.898,128.989 171.118,128.545 
	171.305,128.121 171.533,127.494 171.745,127.07 171.957,126.418 172.169,125.983 172.39,125.367 172.601,124.924 172.812,124.28 
	173.041,123.873 173.253,123.23 173.448,122.814 173.66,122.162 173.872,121.746 174.084,121.307 174.311,120.667 174.531,120.236 
	174.752,119.596 174.939,119.172 175.158,118.52 175.363,118.113 175.607,117.465 175.827,117.029 176.014,116.402 176.243,115.971 
	176.446,115.547 176.65,114.899 176.87,114.476 177.073,113.819 177.317,113.4 177.497,112.769 177.717,112.325 177.937,111.701 
	178.158,111.274 178.361,110.851 178.564,110.22 178.785,109.784 179.029,109.157 179.232,108.716 179.444,108.08 179.639,107.645 
	179.86,107.005 180.047,106.594 180.259,105.947 180.503,105.515 180.682,105.079 180.943,104.447 181.13,104.019 181.359,103.372 
	181.586,102.948 181.774,102.309 182.018,101.894 182.214,101.25 182.426,100.826 182.621,100.175 182.824,99.755 183.069,99.112 
	183.257,98.675 183.485,98.255 183.689,97.604 183.9,97.185 184.12,96.553 184.331,96.114 184.568,95.482 184.755,95.067 
	184.975,94.411 185.187,93.983 185.407,93.58 185.628,92.932 185.839,92.497 186.051,91.861 186.223,91.43 186.45,90.79 
	186.653,90.362 186.89,89.739 187.102,89.303 187.322,88.655 187.534,88.244 187.761,87.8 187.973,87.16 188.202,86.737 
	188.389,86.093 188.633,85.661 188.804,85.03 189.024,84.594 189.236,83.979 189.432,83.539 189.684,82.883 189.864,82.476 
	190.1,81.841 190.311,81.409 190.5,80.994 190.727,80.358 190.955,79.914 191.167,79.266 191.378,78.847 191.599,78.199 
	191.811,77.78 191.997,77.148 192.235,76.696 192.438,76.289 192.65,75.646 192.869,75.213 193.057,74.57 193.293,74.154 
	193.472,73.511 193.725,73.095 193.944,72.456 194.133,72.016 194.393,71.405 194.572,70.949 194.816,70.521 195.028,69.885 
	195.232,69.442 195.444,68.831 195.444,68.383 "/>
</svg>
